<?xml version="1.0" encoding="UTF-8"?>
<svg width="1064px" height="714px" viewBox="0 0 1064 714" version="1.1" xmlns="http://www.w3.org/2000/svg" xmlns:xlink="http://www.w3.org/1999/xlink">
    <!-- Generator: Sketch 54.1 (76490) - https://sketchapp.com -->
    <title>072</title>
    <desc>Created with Sketch.</desc>
    <defs>
        <polyline id="path-1" points="9.11355946e-13 1.25362446 470.636217 1.25362446 470.636217 581.00077 9.11355946e-13 581.00077"></polyline>
    </defs>
    <g id="Bearpots" stroke="none" stroke-width="1" fill="none" fill-rule="evenodd">
        <g id="072" transform="translate(-82.000000, -249.000000)">
            <g transform="translate(-4.000000, 174.000000)">
                <ellipse id="Oval-3" fill-opacity="0.156391531" fill="#000000" cx="617.86568" cy="742.568496" rx="531.657497" ry="46.4315036"></ellipse>
                <g id="Group" transform="translate(745.750964, 346.114889)">
                    <path d="M220.818299,106.361253 C213.562728,108.073545 192.235615,111.138565 173.164064,104.620654 C152.053742,97.4059693 133.420832,80.4361576 133.420832,80.4361576 C133.420832,80.4361576 110.379805,63.1248092 122.855678,54.4055701 C135.331551,45.686331 162.913075,57.6230465 162.913075,57.6230465 C162.913075,57.6230465 187.224527,70.3099088 199.223512,69.6472555 C216.456771,68.6955354 250.609807,52.7799263 250.609807,52.7799263 C250.609807,52.7799263 244.59452,100.750139 220.818299,106.361253 Z" id="Path-3" fill="#F4E37C"></path>
                    <path d="M269.10492,126.170576 C269.10492,126.170576 287.078309,157.07426 309.73377,175.02915 C323.410204,185.867987 343.393769,187.504141 349.097836,187.504141 C354.670113,187.504141 357.418154,173.704301 351.481157,164.727548 C341.273304,149.293254 315.770336,134.205197 309.73377,127.602818 C302.253613,119.421537 293.378231,98.3114771 293.378231,98.3114771" id="Path-4" fill="#F4E37C"></path>
                    <path d="M98.2333205,240.725876 C98.2333205,240.725876 137.237537,228.814708 156.847561,220.760525 C169.644796,215.504475 195.455096,200.795176 195.455096,200.795176" id="Path-9" stroke="#FFFFFF" stroke-width="3.57212389" opacity="0.45"></path>
                    <path d="M1.19398517,226.044605 C1.19398517,226.044605 43.7753366,223.788432 65.0828885,218.574011 C82.3828744,214.340328 117.016599,197.700292 117.016599,197.700292" id="Path-15" stroke="#FFFFFF" stroke-width="3.57212389" opacity="0.45"></path>
                    <path d="M36.5202847,182.989546 C36.5202847,182.989546 66.3661199,177.722259 80.9176114,172.716139 C94.0344082,168.203593 119.52515,154.433548 119.52515,154.433548" id="Path-16" stroke="#FFFFFF" stroke-width="3.57212389" opacity="0.45"></path>
                    <path d="M261.7911,35.08313 C243.70437,55.2982677 236.019374,91.9700018 219.558556,106.846782 C205.293706,119.738914 170.871892,136.584449 170.871892,136.584449 C170.871892,136.584449 153.870179,143.643434 144.385463,154.776226 C135.372391,165.355418 133.785834,179.962871 136.198009,182.64308 C141.927107,189.008779 202.910919,172.183559 202.910919,172.183559 C202.910919,172.183559 224.919451,162.662769 247.288052,145.771618 C267.167837,130.75984 287.295959,108.94699 293.060009,97.7096371 C305.309731,73.8280901 303.879739,16.3760544 303.879739,16.3760544 C303.879739,16.3760544 276.745733,18.368668 261.7911,35.08313 Z" id="Path-2" stroke="#E9D534" stroke-width="3.57212389" fill="#E9D534"></path>
                    <polygon id="Path-8" stroke="#805B21" stroke-width="3.57212389" fill="#805B21" points="290.914198 1.17270952 290.348237 19.8890275 301.707005 20.787804 311.082273 0.76369601"></polygon>
                </g>
                <g id="Group-5" transform="translate(0.380066, -0.000000)">
                    <g id="Group-8" transform="translate(370.207913, 346.988203) rotate(-63.000000) translate(-370.207913, -346.988203) translate(130.433677, 55.500776)">
                        <g id="Dennis" transform="translate(0.636515, 0.000000)">
                            <g id="Mascot_EPS" transform="translate(4.826590, 0.136721)">
                                <g id="Group-3" transform="translate(-0.000000, -0.000000)">
                                    <mask id="mask-2" fill="white">
                                        <use xlink:href="#path-1"></use>
                                    </mask>
                                    <g id="Clip-2"></g>
                                    <path d="M470.197012,330.768322 C467.425871,291.582357 458.228314,254.176229 443.738836,219.434933 C439.901871,210.231838 435.823129,201.152557 431.255109,192.349046 C447.441321,182.919427 458.328459,165.619128 458.328459,145.776405 C458.328459,115.870919 433.678606,91.6285517 403.270445,91.6285517 L67.4144142,91.6285517 C37.0062529,91.6285517 12.3578309,115.870919 12.3578309,145.776405 C12.3578309,165.603651 23.2263701,182.892694 39.3925533,192.326535 C34.8245335,201.127232 30.7472219,210.203698 26.910257,219.403979 C12.4150564,254.15231 3.21177709,291.568287 0.440635787,330.764101 C0.228901708,335.426853 1.03878594e-12,340.08679 1.03878594e-12,344.8016 C1.03878594e-12,378.674786 5.60236929,411.242289 15.801371,441.757 C18.8429024,450.346649 24.6913411,465.138292 31.8573952,475.015334 C32.6399529,476.02977 33.3781609,477.018882 34.2694469,478.08397 C34.3767446,478.207785 34.4797504,478.345669 34.5856174,478.46667 C37.7644899,482.22473 41.6171917,486.247302 46.2538819,490.237514 C50.9334912,494.231947 56.3527392,498.223567 62.5216402,501.562344 C68.6175788,504.881424 75.73213,507.564546 82.7522592,508.453761 C90.0971428,509.489303 97.8483268,508.249748 103.765436,504.166675 C109.796996,500.182091 114.108932,493.211883 116.605391,485.329947 C121.585434,469.362064 121.033209,451.271039 119.508151,434.907793 C117.84146,418.410883 114.80136,403.080364 111.782718,390.054488 C105.658167,363.981632 99.6466359,347.052777 99.6466359,347.052777 C99.6466359,347.052777 106.826996,363.511699 114.815666,389.260948 C118.765651,402.141904 122.917356,417.352829 125.80724,434.083299 C128.476806,450.782815 130.629913,469.177749 126.27935,487.980709 C124.044697,497.217572 119.386547,506.962356 110.905739,513.54705 C102.416347,520.242896 91.8024605,522.31398 82.270135,522.541911 C72.2356564,522.609447 63.3270881,520.358269 55.2468578,517.331842 C54.2625804,516.957584 53.4227973,516.476395 52.4671327,516.079625 C67.2413073,537.990617 84.8352648,557.860072 104.616664,575.402373 C115.170464,581.107701 132.365274,585.32303 155.140994,573.692885 C194.852579,553.413997 234.565594,551.160005 234.565594,551.160005 C234.565594,551.160005 274.277179,553.413997 313.990195,573.692885 C340.674412,587.318137 359.699005,579.206863 369.340058,572.416749 C387.706559,555.651104 404.131687,536.869249 418.047481,516.262533 C417.154764,516.631163 416.375068,517.081399 415.459461,517.428924 C407.37923,520.455351 398.470662,522.707936 388.436183,522.638993 C378.903858,522.411062 368.289972,520.339978 359.80058,513.644132 C351.319772,507.059438 346.663052,497.316061 344.4284,488.077791 C340.077836,469.274831 342.229512,450.879897 344.900509,434.181788 C347.788963,417.451318 351.940667,402.240393 355.890653,389.35803 C363.880753,363.608781 371.059683,347.149859 371.059683,347.149859 C371.059683,347.149859 365.049582,364.078714 358.9236,390.15157 C355.90639,403.177446 352.866289,418.507965 351.198168,435.004875 C349.674541,451.368121 349.122315,469.460553 354.100927,485.42703 C356.597387,493.308965 360.909322,500.28058 366.940882,504.263757 C372.859422,508.348237 380.609176,509.586385 387.95549,508.550843 C394.974188,507.661628 402.08874,504.979913 408.186109,501.659426 C414.35501,498.320649 419.774258,494.329029 424.452437,490.334596 C430.751525,484.91348 435.518403,479.485328 439.180831,474.693134 C444.893359,466.702861 449.747506,455.662242 452.990757,447.211885 C464.390062,415.145268 470.636217,380.698032 470.636217,344.8016 C470.636217,340.088197 470.408746,335.429667 470.197012,330.768322" id="Fill-1" fill="#FFC600" mask="url(#mask-2)"></path>
                                </g>
                                <path d="M67.4144142,118.611728 C52.159546,118.611728 39.7931312,130.773714 39.7931312,145.776405 C39.7931312,155.50712 45.0378416,163.977175 52.8562656,168.774997 C62.4143425,153.336141 73.0811621,138.640173 84.8138052,124.839048 C80.0526497,121.006418 74.0468412,118.611728 67.4144142,118.611728" id="Fill-6" fill="#26292D"></path>
                                <path d="M403.270445,118.611728 C396.623711,118.611728 390.609319,121.01486 385.843872,124.861559 C397.573653,138.661277 408.236181,153.357245 417.792827,168.793288 C425.62985,164.001094 430.891728,155.52119 430.891728,145.776405 C430.891728,130.773714 418.525313,118.611728 403.270445,118.611728" id="Fill-7" fill="#26292D"></path>
                                <path d="M302.878448,279.869199 C302.878448,316.972825 272.294318,347.052777 234.565594,347.052777 C196.83687,347.052777 166.252741,316.972825 166.252741,279.869199 C166.252741,242.764166 196.83687,212.684214 234.565594,212.684214 C272.294318,212.684214 302.878448,242.764166 302.878448,279.869199" id="Fill-12" fill="#FFFFFE"></path>
                                <path d="M230.132054,346.831881 C231.604178,346.926149 233.066288,347.052777 234.562733,347.052777 C236.060609,347.052777 237.524149,346.926149 238.997704,346.831881 L238.997704,259.510113 L230.132054,259.510113 L230.132054,346.831881" id="Fill-13" fill="#26292D"></path>
                                <path d="M270.008162,243.184855 C270.008162,242.256244 269.829333,241.378285 269.57468,240.53128 C269.46309,240.116219 269.37296,239.871403 269.37296,239.871403 L269.365807,239.871403 C269.046775,239.042688 268.613293,238.280102 268.082527,237.583644 L268.085388,237.575202 C268.085388,237.575202 264.072455,229.438603 234.969034,229.361218 L234.969034,229.352776 C234.898932,229.352776 234.838846,229.356997 234.767314,229.356997 C234.697213,229.356997 234.635695,229.352776 234.565594,229.352776 L234.565594,229.361218 C217.63259,229.406242 209.2133,232.170969 205.121682,234.485461 C202.650974,235.460502 200.709601,237.419027 199.765382,239.871403 L199.751075,239.871403 C199.751075,239.871403 199.645208,240.158428 199.522173,240.641024 C199.287549,241.455669 199.121595,242.297047 199.121595,243.184855 C199.121595,243.265053 199.143055,243.339623 199.145916,243.418415 C198.972809,247.639372 200.380555,255.072479 210.113169,262.698343 C219.688414,270.200392 227.043312,272.648547 231.086288,273.460378 C231.393875,273.529321 231.708615,273.57153 232.021924,273.622182 C233.612791,273.875439 234.558441,273.874032 234.558441,273.874032 L234.565594,273.874032 C234.565594,273.874032 235.506953,273.874032 237.092097,273.623589 C237.41399,273.57153 237.737314,273.529321 238.053484,273.457564 C242.099322,272.642919 249.448497,270.189136 259.010866,262.698343 C268.703423,255.103433 270.13835,247.699873 269.97955,243.470473 C269.982411,243.373391 270.008162,243.283344 270.008162,243.184855" id="Fill-14" fill="#26292D"></path>
                                <path d="M37.080646,452.631594 C37.080646,452.631594 33.4296638,447.963215 29.4095775,440.068617 C25.3651705,432.210601 21.2621074,421.105261 18.6426135,409.683349 C15.9787698,398.262844 14.7112266,386.610187 14.4551428,377.860141 C14.2248105,369.09884 14.7813278,363.249999 14.7813278,363.249999 C14.7813278,363.249999 15.2191023,364.665427 15.8213999,367.145943 C16.4050993,369.619425 17.2405905,373.152366 18.2434661,377.393022 C20.1676711,385.857449 22.4838702,397.100674 25.1219624,408.227119 C27.632728,419.385924 30.5469329,430.426543 32.9518315,438.717911 C34.1764556,442.878368 35.1964988,446.346588 35.910386,448.773639 C36.7043888,451.204911 37.080646,452.631594 37.080646,452.631594" id="Fill-16" fill="#FFFFFE"></path>
                                <path d="M377.773656,382.078285 C377.773656,382.078285 377.672081,386.007997 377.051185,391.710511 C376.395954,397.407397 375.112673,404.854573 373.577601,412.228587 C371.979581,419.591344 370.156951,426.90345 368.513151,432.390695 C367.749192,435.139945 366.836446,437.409414 366.374351,439.027448 C365.83357,440.634225 365.431562,441.548766 365.431562,441.548766 C365.431562,441.548766 364.784915,437.666892 364.733412,431.863075 C364.713383,426.0677 365.485926,418.395406 367.072501,410.89195 C368.683397,403.391308 371.079711,396.077795 373.375882,390.757981 C375.704957,385.439574 377.773656,382.078285 377.773656,382.078285" id="Fill-17" fill="#FFFFFE"></path>
                                <path d="M66.5360039,98.2033969 C66.5360039,98.2033969 62.4257876,99.7524884 57.0651957,102.9168 C54.3641556,104.449007 51.3569594,106.379392 48.3483326,108.660116 C45.3168156,110.907073 42.3368015,113.580346 39.5971342,116.461853 C36.7730593,119.28286 34.4039267,122.483753 32.1349385,125.507366 C30.0962826,128.675898 28.1162829,131.647452 26.6756328,134.395296 C25.0547225,137.057313 23.9245204,139.429492 23.093321,141.092549 C22.2378009,142.748571 21.6526709,143.692659 21.6526709,143.692659 C21.6526709,143.692659 21.6626854,142.621943 21.8458067,140.750651 C22.1362258,138.914535 22.12335,136.124482 23.1219337,133.023485 C23.820084,129.818371 25.2793323,126.265731 27.1119766,122.547067 C29.0991296,118.901567 31.6914414,115.250438 34.7615856,111.979196 C41.0020184,105.497212 49.1380435,101.06802 55.607378,99.4654633 C62.0795738,97.7278357 66.5360039,98.2033969 66.5360039,98.2033969" id="Fill-18" fill="#FFFFFE"></path>
                            </g>
                            <g id="Group-2" transform="translate(239.358058, 399.790131) scale(-1, 1) translate(-239.358058, -399.790131) translate(1.111046, 267.781426)">
                                <path d="M41.6411462,224.213597 C31.8618947,208.400914 17.7349567,176.313415 17.7349567,176.313415 C17.7349567,176.313415 11.7884523,158.670724 10.5643536,150.575554 C9.34025476,142.480385 7.3440149,137.483083 7.3440149,137.483083 C7.3440149,137.483083 0.202558574,88.6098202 0.808067761,63.1310157 C1.27600495,43.4410087 10.0964168,21.6666557 10.564354,1.9766487 C33.4368759,-4.90680432 138.665372,63.1310149 138.665372,63.1310149 C141.671525,61.2304426 187.95207,100.454726 234.505565,100.110042 C277.212019,99.793841 464.873536,13.7115942 464.873536,13.7115942 C468.028825,13.2034945 477.896079,45.6628896 475.926749,79.1713695 C474.260203,107.527913 472.264293,152.646545 467.598325,166.268583 C461.280096,184.714309 444.512053,202.227395 438.202095,218.007619 C433.127957,230.697252 424.540593,242.764041 419.466455,255.453673 C419.466455,255.453673 357.726292,262.200966 287.416712,262.978473 C206.072259,263.878008 75.8284971,258.638875 58.9902102,255.453676 C52.4548696,244.886276 48.1764868,234.780998 41.6411462,224.213597 Z" id="Fill-79" fill="#395370"></path>
                                <path d="M361.726264,232.136023 C361.726264,232.136023 341.797973,159.829804 392.126315,156.79134 C442.454656,153.752876 464.265601,229.823963 464.265601,229.823963 L361.726264,232.136023 Z" id="Path-1628" stroke="#DAA518" stroke-width="1.96466814" fill="#FFC600" transform="translate(411.049801, 194.419353) scale(-1, 1) rotate(172.000000) translate(-411.049801, -194.419353) "></path>
                                <g id="Group-4" transform="translate(412.948059, 145.381798) scale(-1, 1) translate(-412.948059, -145.381798) translate(354.149918, 98.072320)" fill="#21374F">
                                    <polygon id="Path-1630" transform="translate(57.380816, 70.761342) rotate(85.000000) translate(-57.380816, -70.761342) " points="38.6195949 18.5426966 61.4963422 16.0673127 76.142037 120.339854 47.3361289 125.455371"></polygon>
                                    <path d="M98.5210383,-1.15216312 C98.5210383,-1.15216312 98.4485521,3.20954846 98.3418526,9.74996606 C98.3014741,11.3851402 98.2570541,13.15677 98.210618,15.0304548 C98.166212,16.9041399 98.1177597,18.8798799 98.0672866,20.9238476 C98.022904,22.9678162 97.980561,25.0800131 97.9341623,27.2260368 C97.9040049,29.3720627 97.871822,31.5522024 97.8396391,33.732342 C97.8338483,35.9124853 97.8280575,38.0923419 97.8222621,40.2383712 C97.8591001,42.3844063 97.8939032,44.4963272 97.9286969,46.54002 C98.0223654,48.5837208 98.1139944,50.5591934 98.1995188,52.4326097 C98.2769225,54.3060249 98.5654491,56.076267 98.6813932,57.711176 C98.8480913,59.346092 99.231998,60.8434351 99.4270763,62.1716155 C99.6769689,63.4995167 100.190759,64.6548774 100.450751,65.6080991 C100.544204,66.0851349 100.810214,66.5088734 101.064035,66.8775691 C101.297554,67.246262 101.496553,67.5601957 101.659001,67.8144965 C101.981867,68.3239579 102.152439,68.5954601 102.152439,68.5954601 C102.152439,68.5954601 101.927053,68.3248103 101.500649,67.8173414 C101.289477,67.5636073 101.025513,67.250238 100.716878,66.8821081 C100.389971,66.5139757 100.036664,66.0905119 99.8477934,65.6140363 C99.4172679,64.6619378 98.7045217,63.5062631 98.2597334,62.1783351 C97.8656992,60.8507007 97.2828364,59.3524703 96.9435743,57.7175305 C96.6225838,56.0825933 96.1614931,54.3108941 95.9480684,52.4371735 C95.7224626,50.5631646 95.3770632,48.5870838 95.2874549,46.5425235 C95.1552133,44.4982439 94.945816,42.3857258 94.9495812,40.2391229 C94.9310147,38.0925169 94.9144735,35.9117972 94.8959023,33.7313639 C94.9625979,31.5506556 95.0272633,29.3702337 95.0919334,27.2236392 C95.2296895,25.0773414 95.3674501,22.964871 95.4970996,20.9209141 C95.6876539,18.8769657 95.8721271,16.9009577 96.0484937,15.0272908 C96.2735843,13.1539172 96.4865078,11.3823106 96.6832089,9.74715792 C97.5471592,3.20684445 98.5210383,-1.15216312 98.5210383,-1.15216312" id="Fill-84" transform="translate(98.524170, 33.721649) scale(-1, 1) rotate(25.000000) translate(-98.524170, -33.721649) "></path>
                                </g>
                                <g id="Group" transform="translate(66.448644, 168.529902) scale(-1, 1) translate(-66.448644, -168.529902) translate(5.359666, 97.565685)">
                                    <path d="M9.54081348,134.570338 C9.54081348,134.570338 -10.3874766,62.2641194 39.9408646,59.2256553 C90.2692059,56.1871913 112.080151,132.258278 112.080151,132.258278 L9.54081348,134.570338 Z" id="Path-1628" stroke="#DAA518" stroke-width="1.96466814" fill="#FFC600" transform="translate(58.864351, 96.853667) scale(-1, 1) rotate(172.000000) translate(-58.864351, -96.853667) "></path>
                                    <g id="Group-4" transform="translate(62.001375, 47.816113) scale(-1, 1) translate(-62.001375, -47.816113) translate(3.203234, 0.506635)" fill="#21374F">
                                        <polygon id="Path-1630" transform="translate(57.380816, 70.761342) rotate(85.000000) translate(-57.380816, -70.761342) " points="38.6195949 18.5426966 61.4963422 16.0673127 76.142037 120.339854 47.3361289 125.455371"></polygon>
                                        <path d="M98.5210383,-1.15216312 C98.5210383,-1.15216312 98.4485521,3.20954846 98.3418526,9.74996606 C98.3014741,11.3851402 98.2570541,13.15677 98.210618,15.0304548 C98.166212,16.9041399 98.1177597,18.8798799 98.0672866,20.9238476 C98.022904,22.9678162 97.980561,25.0800131 97.9341623,27.2260368 C97.9040049,29.3720627 97.871822,31.5522024 97.8396391,33.732342 C97.8338483,35.9124853 97.8280575,38.0923419 97.8222621,40.2383712 C97.8591001,42.3844063 97.8939032,44.4963272 97.9286969,46.54002 C98.0223654,48.5837208 98.1139944,50.5591934 98.1995188,52.4326097 C98.2769225,54.3060249 98.5654491,56.076267 98.6813932,57.711176 C98.8480913,59.346092 99.231998,60.8434351 99.4270763,62.1716155 C99.6769689,63.4995167 100.190759,64.6548774 100.450751,65.6080991 C100.544204,66.0851349 100.810214,66.5088734 101.064035,66.8775691 C101.297554,67.246262 101.496553,67.5601957 101.659001,67.8144965 C101.981867,68.3239579 102.152439,68.5954601 102.152439,68.5954601 C102.152439,68.5954601 101.927053,68.3248103 101.500649,67.8173414 C101.289477,67.5636073 101.025513,67.250238 100.716878,66.8821081 C100.389971,66.5139757 100.036664,66.0905119 99.8477934,65.6140363 C99.4172679,64.6619378 98.7045217,63.5062631 98.2597334,62.1783351 C97.8656992,60.8507007 97.2828364,59.3524703 96.9435743,57.7175305 C96.6225838,56.0825933 96.1614931,54.3108941 95.9480684,52.4371735 C95.7224626,50.5631646 95.3770632,48.5870838 95.2874549,46.5425235 C95.1552133,44.4982439 94.945816,42.3857258 94.9495812,40.2391229 C94.9310147,38.0925169 94.9144735,35.9117972 94.8959023,33.7313639 C94.9625979,31.5506556 95.0272633,29.3702337 95.0919334,27.2236392 C95.2296895,25.0773414 95.3674501,22.964871 95.4970996,20.9209141 C95.6876539,18.8769657 95.8721271,16.9009577 96.0484937,15.0272908 C96.2735843,13.1539172 96.4865078,11.3823106 96.6832089,9.74715792 C97.5471592,3.20684445 98.5210383,-1.15216312 98.5210383,-1.15216312" id="Fill-84" transform="translate(98.524170, 33.721649) scale(-1, 1) rotate(25.000000) translate(-98.524170, -33.721649) "></path>
                                    </g>
                                </g>
                            </g>
                        </g>
                        <path d="M110.633584,123.563444 C107.475817,127.358387 90.0748789,146.27689 85.1369722,153.783399 C72.7461068,172.619748 49.3583876,198.581342 49.3583876,198.581342 C49.3583876,198.581342 46.601171,196.224386 44.4738048,176.953846 C44.4738048,176.953846 57.1255107,156.035885 56.8674727,153.783399 C56.0769753,146.913497 60.1564337,140.020015 61.4015695,133.164622 C60.459526,132.502659 58.6573557,132.103668 56.9002398,132.163517 C58.726985,131.44896 60.5537303,130.734403 62.3804756,130.018033 C59.8164789,125.328073 61.9299331,120.173833 68.0573119,116.183922 C69.1427099,115.47662 70.3960374,114.7403 70.4083249,113.886096 C70.4533792,111.016987 58.4116053,111.120362 56.867473,108.332865 C68.4259377,108.051757 79.4519429,105.015798 85.1369709,100.554351 C86.7794033,99.2648846 87.9958682,97.8774836 89.6383007,96.5898304 C91.7189881,94.9594076 94.4591061,93.5139715 97.1254989,92.0612811 C106.636043,86.87621 115.429814,81.4336083 123.445376,75.7751886 C123.662456,77.2532694 123.879535,78.7331638 124.092519,80.2130582 C129.892231,74.7069806 141.368778,70.4359619 154.618826,68.8526925 C154.684359,69.9626133 154.753988,71.0743477 154.823618,72.1842685 C164.285012,67.0481645 178.260023,63.5878232 193.09516,62.7064155 C193.353199,60.9816857 192.595468,59.2315655 190.924365,57.6718729 C196.244863,58.5968069 201.991328,59.0393243 207.700931,58.9613397 C202.757251,56.6181736 202.269845,52.943828 204.604475,49.9096818 C206.939105,46.8737221 211.632939,44.3256196 216.232569,41.850061 C220.676557,47.911099 231.956504,52.9057425 245.648902,54.8734942 C244.260412,53.8052861 242.876018,52.7388917 241.491623,51.6706836 C269.888092,66.2828269 326.181338,67.0608596 347.938447,83.7568248 C348.225156,82.9443338 348.507769,82.1318428 348.790382,81.3193517 C348.237444,83.5283117 352.992716,85.3074494 357.715221,86.0582782 C362.437726,86.809107 367.704978,87.0158569 371.833587,88.2781198 C378.108416,90.1950908 379.722177,94.5187038 375.179889,97.2264026 L404.542977,95.5379447 C395.134829,96.4610651 386.205894,98.3200011 378.591725,100.935207 C383.600939,100.63959 388.872287,101.430318 392.443861,103.013588 C390.252586,103.062555 388.061311,103.113335 385.870035,103.162302 C393.811872,104.382853 401.491575,105.937104 408.773981,107.79604 C406.541747,109.270494 402.933311,110.32238 398.989016,110.6452 C406.660527,111.758748 411.022598,115.384126 412.730564,118.877112 C414.442626,122.368285 414.299271,126.033562 416.80183,129.430428 C417.608711,130.527653 419.902382,131.806238 422.220628,131.280296 C420.488088,145.89788 425.792202,159.987707 429.048396,174.556324 C422.220638,186.935573 422.220638,189.321651 422.220638,189.321651 C422.220638,189.321651 411.359398,171.378913 398.989009,153.783399 C392.080416,143.956687 373.65214,119.393987 368.085892,115.942714 C362.523739,112.489627 353.701296,109.800064 344.121123,109.850845 C339.375124,109.875465 315.940782,103.661182 290.56446,100.935207 C257.993376,97.4363552 222.529287,97.2264054 222.529287,97.2264054 L144.233785,107.796039" id="Fill-83" fill="#776A48"></path>
                    </g>
                    <path d="M313.76509,253.194321 C317.356631,254.513906 360.357965,220.548845 360.357965,220.548845 C360.357965,220.548845 364.634739,216.69431 362.219166,211.734758 C359.803593,206.775207 352.074405,210.260242 352.074405,210.260242 L318.842063,230.135914 L302.285612,198.266513 C302.285612,198.266513 297.70585,192.255965 292.634479,196.375938 C287.563109,200.495911 289.412376,204.693602 289.412376,204.693602 C289.412376,204.693602 309.72229,251.708937 313.76509,253.194321 Z" id="Path-17" fill="#1F2228" transform="translate(326.020994, 224.082264) rotate(11.000000) translate(-326.020994, -224.082264) "></path>
                    <path d="M229.073428,413.527767 C232.665356,414.846215 275.683475,380.87737 275.683475,380.87737 C275.683475,380.87737 279.962035,377.022552 277.547195,372.06457 C275.132354,367.106588 267.400788,370.592821 267.400788,370.592821 L234.157029,390.472677 L217.605081,358.613611 C217.605081,358.613611 213.02588,352.605368 207.952502,356.725765 C202.879125,360.846162 204.727733,365.042571 204.727733,365.042571 C204.727733,365.042571 225.030191,412.043664 229.073428,413.527767 Z" id="Path-17" fill="#1F2228" transform="translate(241.342585, 384.423555) scale(-1, 1) rotate(-230.000000) translate(-241.342585, -384.423555) "></path>
                </g>
            </g>
        </g>
    </g>
</svg>