<?xml version="1.0" encoding="UTF-8"?>
<svg width="974px" height="1024px" viewBox="0 0 974 1024" version="1.1" xmlns="http://www.w3.org/2000/svg" xmlns:xlink="http://www.w3.org/1999/xlink">
    <!-- Generator: Sketch 59.1 (86144) - https://sketch.com -->
    <title>Bearpots_All_117</title>
    <desc>Created with Sketch.</desc>
    <defs>
        <path d="M562.914928,573.071236 C601.845025,559.764387 615.767046,546.65039 619.419428,542.514767 C620.090178,541.777201 620.195053,540.687623 619.677243,539.836255 L477.27731,304.127171 C476.873182,303.461276 476.842848,302.63435 477.197107,301.94078 C477.551367,301.247211 478.239891,300.785533 479.017563,300.720104 C535.199793,295.148798 524.693824,284.670458 524.693824,284.670458 L351.442005,1.06957363 C351.020941,0.403799522 350.286882,0 349.497648,0 C348.708414,0 347.974355,0.403799522 347.553292,1.06957363 L174.301473,284.563317 C174.301473,284.563317 163.795503,295.041657 219.999218,300.612963 C220.773015,300.685123 221.455082,301.149459 221.804389,301.841881 C222.153696,302.534303 222.12105,303.357297 221.717986,304.020031 L79.3180535,539.836255 C78.8002438,540.687623 78.905119,541.777201 79.5758687,542.514767 C83.2282508,546.65039 97.150272,559.764387 136.080368,573.071236 C136.72093,573.293709 137.228725,573.789381 137.465521,574.423321 C137.702318,575.057261 137.643467,575.763482 137.304991,576.349735 L0.362146342,809.444591 C0,809.97846 -0.0943545075,810.644177 0.0929273914,811.258506 C0.28020929,811.872836 0.733837312,812.371024 1.32895337,812.615949 C20.1924327,821.744319 158.897014,885.471484 349.508391,888 C540.098282,885.450056 678.802864,821.744319 697.687828,812.615949 C698.279272,812.366671 698.72793,811.866624 698.910906,811.25278 C699.093881,810.638936 698.991993,809.975643 698.63315,809.444591 L561.690306,576.349735 C561.351829,575.763482 561.292979,575.057261 561.529775,574.423321 C561.766572,573.789381 562.274367,573.293709 562.914928,573.071236 Z" id="path-1"></path>
    </defs>
    <g id="Bearpots" stroke="none" stroke-width="1" fill="none" fill-rule="evenodd">
        <g id="117" transform="translate(-113.000000, -88.000000)">
            <g id="Bearpots_All_117" transform="translate(113.000000, 88.000000)">
                <path d="M569,869.459727 L569,983.362444 C568.984597,990.142356 572.735339,996.381085 578.760667,999.597592 C601.859006,1012.1796 629.861655,1012.13114 652.915466,999.469251 C659.096899,996.252698 662.977207,989.915233 663,982.998811 L663,869.459727 C663,859.264701 654.656435,851 644.364126,851 L587.635921,851 C577.343612,851 569,859.264701 569,869.459727 Z" id="Path" fill="#4A3B1E" fill-rule="nonzero"></path>
                <path d="M644.389345,851 L585.452011,851 C576.58201,851.009129 569.337882,858.035568 569.127253,866.834189 C569.131335,867.080301 569.167579,867.324848 569.235078,867.561706 L571.024979,873.809791 C572.448274,874.794079 567.488308,867.647296 567.337352,869.294908 C566.388489,879.544336 563.196859,886.220372 572.103233,892.682433 C586.055832,902.782078 649.414006,892.297277 661.145404,890.050534 C662.19,889.852218 662.958748,888.965268 663,887.910779 L663,869.466088 C663,859.267549 654.667726,851 644.389345,851 Z" id="Path" fill="#352915" fill-rule="nonzero"></path>
                <path d="M837.914928,573.071236 C876.845025,559.764387 890.767046,546.65039 894.419428,542.514767 C895.090178,541.777201 895.195053,540.687623 894.677243,539.836255 L752.27731,304.127171 C751.873182,303.461276 751.842848,302.63435 752.197107,301.94078 C752.551367,301.247211 753.239891,300.785533 754.017563,300.720104 C810.199793,295.148798 799.693824,284.670458 799.693824,284.670458 L626.442005,1.06957363 C626.020941,0.403799522 625.286882,0 624.497648,0 C623.708414,0 622.974355,0.403799522 622.553292,1.06957363 L449.301473,284.563317 C449.301473,284.563317 438.795503,295.041657 494.999218,300.612963 C495.773015,300.685123 496.455082,301.149459 496.804389,301.841881 C497.153696,302.534303 497.12105,303.357297 496.717986,304.020031 L354.318054,539.836255 C353.800244,540.687623 353.905119,541.777201 354.575869,542.514767 C358.228251,546.65039 372.150272,559.764387 411.080368,573.071236 C411.72093,573.293709 412.228725,573.789381 412.465521,574.423321 C412.702318,575.057261 412.643467,575.763482 412.304991,576.349735 L275.362146,809.444591 C275,809.97846 274.905645,810.644177 275.092927,811.258506 C275.280209,811.872836 275.733837,812.371024 276.328953,812.615949 C295.192433,821.744319 433.897014,885.471484 624.508391,888 C815.098282,885.450056 953.802864,821.744319 972.687828,812.615949 C973.279272,812.366671 973.72793,811.866624 973.910906,811.25278 C974.093881,810.638936 973.991993,809.975643 973.63315,809.444591 L836.690306,576.349735 C836.351829,575.763482 836.292979,575.057261 836.529775,574.423321 C836.766572,573.789381 837.274367,573.293709 837.914928,573.071236 Z" id="Path" fill="#227E3E" fill-rule="nonzero"></path>
                <g id="Path-+-Path-+-Group-Mask" transform="translate(275.000000, 0.000000)">
                    <mask id="mask-2" fill="white">
                        <use xlink:href="#path-1"></use>
                    </mask>
                    <use id="Mask" fill="#227E3E" fill-rule="nonzero" xlink:href="#path-1"></use>
                    <path d="M559.907134,574.268949 L564.200622,581.683608 C564.200622,581.683608 519.011659,598.904751 373.312136,596.904315 C227.612613,594.903879 364.725159,592.555541 372.174361,592.794724 C409.720916,593.925405 543.806553,580.335488 559.907134,574.268949 Z" id="Path" fill="#356E41" fill-rule="nonzero" mask="url(#mask-2)"></path>
                    <path d="M475.131514,300.1617 C475.131514,300.1617 492.919093,298.32707 496.412316,297.631176 C503.28461,296.582739 510.057999,294.981742 516.664438,292.844269 C522.707929,290.566798 524.722426,288.62673 525.065319,285.990767 C524.851011,284.936383 525.065319,285.273786 524.079501,283.671121 L523.179407,282.237157 C522.65064,281.382286 521.608859,280.977414 520.62914,281.246035 L505.391828,285.463575 C505.391828,285.463575 377.685587,313.341511 223.940902,300.224963 C251.608087,306.29822 311.228622,309.967479 361.869643,309.313761 C399.794425,308.868342 437.640955,305.810175 475.131514,300.1617 L475.131514,300.1617 Z" id="Path" fill="#356E41" fill-rule="nonzero" mask="url(#mask-2)"></path>
                    <g id="Group" mask="url(#mask-2)" fill-rule="nonzero">
                        <g transform="translate(-42.396579, 92.273839)" id="Path">
                            <path d="M478.371229,62.8348711 C355.449837,62.8348711 271.31182,15.9613071 270.173659,15.3180286 C266.307244,13.1153363 264.961205,8.20004051 267.167196,4.33940802 C269.373188,0.478775538 274.295846,-0.865250722 278.162261,1.33744132 C279.665493,2.19514606 430.933536,86.1429974 623.068003,23.723535 C627.258088,22.4694843 631.68453,24.784551 633.038004,28.9379306 C634.391479,33.0913103 632.176988,37.5640097 628.050142,39.012122 C579.726436,54.7803171 529.209813,62.8204934 478.371229,62.8348711 L478.371229,62.8348711 Z" fill="#ED3624"></path>
                            <path d="M265.427742,143.116035 C203.621465,142.846625 142.213757,133.216542 83.3005026,114.554467 C80.5153117,113.731742 78.3896194,111.475195 77.7375425,108.649059 C77.0854656,105.822923 78.0080524,102.865147 80.1519623,100.908525 C82.2958722,98.9519039 85.3288769,98.2996433 88.0893689,99.2015521 C375.63609,188.488615 561.134863,35.0452376 562.98169,33.4799264 C566.379487,30.6766276 571.402973,31.1216182 574.253461,34.4784027 C577.103949,37.8351872 576.722222,42.8564142 573.396938,45.7451042 C571.915181,46.9887761 455.736857,143.116035 265.427742,143.116035 Z" fill="#75CCD0"></path>
                            <path d="M65.0899261,388.762672 C46.0418349,388.762672 26.9937437,388.119394 7.94565248,386.725623 C5.07625552,386.514954 2.53738259,384.791772 1.28540254,382.205183 C0.0334224913,379.618594 0.258540882,376.561563 1.87595779,374.185643 C3.4933747,371.809724 6.25736603,370.475875 9.12676299,370.686545 C243.65236,387.840639 482.837974,292.5282 642.201993,209.65248 C661.529256,199.638777 661.808427,199.445793 665.587981,200.410711 C669.226693,201.357259 671.725049,204.692151 671.610824,208.444838 C671.488548,212.197525 668.785171,215.368997 665.094062,216.085265 C662.946589,216.985855 656.504168,220.373789 649.653727,223.933264 C501.284773,301.062362 284.389935,388.762672 65.0899261,388.762672 Z" fill="#ED3624"></path>
                            <path d="M609.882515,373.238216 C341.083239,373.238216 139.585787,275.760073 137.202091,274.602171 C133.211144,272.636328 131.57186,267.812234 133.540649,263.827255 C135.509437,259.842277 140.340757,258.205445 144.331704,260.171289 C147.230793,261.607944 437.633654,401.992768 785.137839,342.575272 C787.976547,342.092647 790.857485,343.158851 792.69543,345.372256 C794.533375,347.58566 795.049101,350.609995 794.048338,353.306024 C793.047576,356.002053 790.682364,357.960185 787.843656,358.44281 C729.048817,368.389026 669.515112,373.338563 609.882515,373.238216 Z" fill="#75CCD0"></path>
                            <path d="M476.739149,549.475098 C385.321196,549.475098 311.727274,539.59005 257.696837,528.397004 C152.105558,506.525533 97.7315255,475.884031 95.4766782,474.597474 C91.7319863,472.341832 90.4746828,467.514287 92.644455,463.722865 C94.8142272,459.931442 99.6178959,458.56213 103.46528,460.638329 C105.612754,461.860558 323.409531,582.41096 725.201849,510.449532 C729.613832,509.679774 733.815398,512.627032 734.586309,517.032416 C735.35722,521.4378 732.405548,525.633082 727.993565,526.40284 C645.090189,541.497367 561.00914,549.218384 476.739149,549.475098 L476.739149,549.475098 Z" fill="#75CCD0"></path>
                            <path d="M213.072335,687.544118 C113.25776,687.544118 43.9587855,678.238022 42.2408066,678.002153 C39.3256385,677.694018 36.8084312,675.828485 35.6688854,673.131623 C34.5293397,670.43476 34.9474809,667.332618 36.7605678,665.032554 C38.5736547,662.732491 41.495256,661.59787 44.3882802,662.070287 C48.6832275,662.670681 477.619613,720.094013 741.930669,544.41464 C745.636972,541.957335 750.636547,542.965355 753.097532,546.666115 C755.558517,550.366874 754.548988,555.358972 750.842685,557.816276 C588.23598,665.951401 365.199368,687.544118 213.072335,687.544118 Z" fill="#75CCD0"></path>
                            <path d="M785.760606,691.083147 C578.830046,691.083147 417.254129,655.551731 313.917697,623.666558 C187.603298,584.70532 120.408847,543.728476 117.617131,542.013066 C115.107115,540.532967 113.594115,537.814003 113.659115,534.904098 C113.728406,531.994192 115.365213,529.347692 117.940836,527.984592 C120.516458,526.621492 123.628743,526.754623 126.078178,528.332676 C128.76252,529.983757 400.396461,693.440838 865.088283,673.263334 C868.013621,673.053362 870.821977,674.448009 872.419404,676.904016 C874.016832,679.360022 874.150713,682.488993 872.768897,685.072093 C871.387081,687.655193 868.708089,689.283929 865.775474,689.323855 C838.41666,690.524642 811.745037,691.11074 785.760606,691.083147 Z" fill="#ED3624"></path>
                        </g>
                    </g>
                </g>
                <path d="M837,573 C836.7598,573.126062 836.54174,573.301111 836.356522,573.516556 C836.192387,573.748911 836.063099,574.010737 835.973913,574.291391 C835.891263,574.62254 835.891263,574.973486 835.973913,575.304636 C835.963908,575.396999 835.963908,575.490418 835.973913,575.582781 L836.06087,575.860927 L835.956522,576 L835.66087,576 L835,574.490066 L835,573.953642 L835.086957,573.953642 L837,573 Z" id="Path" fill="#356E41" fill-rule="nonzero"></path>
                <path d="M541.611207,137 C568.99249,194.017821 629.932409,240.293777 758.951473,218.853014 C732.660312,298.042045 667.766031,397.791007 455,405.288829 C476.994801,549.487629 687.23859,603.905919 862,488.860541" id="Path" stroke="#1A6935" stroke-width="2" stroke-linecap="round" stroke-linejoin="round"></path>
                <circle id="Oval" fill="#F8EC3B" fill-rule="nonzero" cx="724" cy="544" r="19"></circle>
                <circle id="Oval" fill="#F8EC3B" fill-rule="nonzero" cx="649" cy="353" r="19"></circle>
                <circle id="Oval" fill="#F8EC3B" fill-rule="nonzero" cx="715" cy="299" r="19"></circle>
                <g id="Bearpots" transform="translate(0.000000, 297.000000)">
                    <g id="Group-29" transform="translate(101.940907, 100.788784)">
                        <path d="M565.952298,422.841115 C573.517514,392.061088 577.336136,360.480797 577.325282,328.78588 C577.325282,322.867219 577.046299,317.012892 576.788798,311.158565 C573.50706,263.111542 562.591136,215.893137 544.450965,171.276599 C539.751572,159.718056 534.773219,148.309623 529.194031,137.244301 C549.758871,124.91389 562.325017,102.689085 562.282909,78.7224735 C562.282909,41.151846 524.623388,0.343110754 487.457411,0.343110754 L84.4039793,10.722211 C53.9158987,11.070339 27.3662441,31.6071005 19.3859873,61.0151063 C11.4057306,90.4231121 23.935548,121.550785 50.0705133,137.244301 C44.4913251,148.309623 39.5129725,159.718056 34.8135794,171.276599 C16.6791721,215.903533 5.75652925,263.126908 2.4542877,311.180009 C2.19678671,317.034336 1.91781615,322.910108 1.91781615,328.828768 C1.9079765,370.192337 8.42555775,411.298691 21.2304019,450.633086 C22.989992,455.779747 25.5220852,462.663407 28.6764723,469.825844 C28.9768902,470.554954 29.2987664,471.26262 29.6421011,471.970286 C32.7402982,479.115748 36.4974271,485.957448 40.8648528,492.40682 C41.8090231,493.672041 42.7102766,494.915818 43.8046558,496.266816 L44.1909073,496.738593 C48.5524874,502.036609 53.3237789,506.984043 58.4607541,511.535245 C64.5613893,516.974426 71.2305011,521.741133 78.3527059,525.752897 C81.91002,527.762406 85.6193631,529.490391 89.4467071,530.921002 C93.8439183,532.590855 98.4144355,533.763309 103.072801,534.416443 C112.028833,535.962685 121.237821,534.037728 128.822901,529.033893 C136.204596,524.015898 141.483366,515.266574 144.530462,505.445029 C150.603193,485.394494 149.937982,462.663407 148.0711,442.098206 C146.090226,423.13623 142.936965,404.314941 138.629397,385.742265 C131.14041,352.996632 123.801632,331.723765 123.801632,331.723765 C123.801632,331.723765 132.578124,352.396188 142.341703,384.755821 C147.977431,403.231959 152.463661,422.038918 155.774672,441.068874 C159.036351,462.041519 161.675736,485.158606 156.354049,508.768914 C153.62883,520.391791 147.920891,532.636556 137.556476,540.935547 C127.192061,549.234539 114.209719,551.95798 102.557799,552.236758 C91.2266149,552.175442 80.0110389,549.955624 69.5118384,545.696209 C68.3101671,545.224432 67.3659968,544.623988 66.1214087,544.130766 C84.149034,571.489359 105.546272,596.474949 129.809988,618.500022 C142.685038,625.683904 163.735744,630.980676 191.56731,616.35558 C221.828757,600.811973 254.788763,591.203391 288.666643,588.048943 C322.537484,591.204514 355.490251,600.813109 385.744519,616.35558 C418.38277,633.511118 441.536401,623.282128 453.424363,614.747248 C468.386814,600.720076 482.240265,585.556462 494.860565,569.392296 L494.860565,569.392296 L496.040778,567.783964 C501.941842,560.14975 507.606864,552.301091 512.928552,544.1951 L512.649592,544.323766 C557.712266,476.087615 565.845006,422.862559 565.845006,422.862559 L565.952298,422.841115 Z M347.205203,477.03117 C323.12886,469.547066 306.691713,447.244867 301.99232,423.420114 C298.292953,404.028787 302.478496,383.963632 313.622782,367.664617 L347.205203,477.03117 Z" id="Fill-1" fill="#FFC612"></path>
                        <path d="M84.4039793,44.604398 C69.2638385,44.7885351 56.0513244,54.9102065 51.9408394,69.4733392 C47.8303544,84.0364718 53.8027256,99.5660705 66.6149522,107.629555 C78.2496921,88.2787079 91.3111113,69.8211458 105.690728,52.4101676 C99.7253395,47.4032911 92.1941024,44.6416151 84.4039793,44.604398" id="Fill-3" fill="#2B2B2B"></path>
                        <path d="M494.989316,44.604398 C487.182818,44.6284958 479.635894,47.4083277 473.681108,52.4530564 C488.058295,69.853421 501.112826,88.304217 512.735426,107.650999 C525.562206,99.5995658 531.552088,84.0686236 527.450487,69.4968651 C523.348885,54.9251065 510.135308,44.7924307 494.989316,44.604398" id="Fill-5" fill="#2B2B2B"></path>
                        <path d="M47.3238361,464.250294 C43.746818,459.270426 40.6092577,453.98956 37.9465082,448.467199 C32.1023681,436.293497 27.6883079,423.48452 24.792499,410.296128 C21.8471626,397.159608 20.1302546,383.777895 19.6639375,370.323725 C19.4716113,364.202032 19.6077098,358.074436 20.0716474,351.9673 C20.0716474,351.9673 20.6081078,353.747187 21.337694,356.856628 C22.0672801,359.966069 23.0758257,364.405065 24.2989554,369.723281 C26.6593812,380.445492 29.4918922,394.491589 32.7106546,408.473352 C35.929417,422.455115 39.3413052,436.351101 42.2811082,446.77309 L45.9075806,459.403855 C46.8732093,462.470407 47.3238361,464.250294 47.3238361,464.250294" id="Fill-7" fill="#FFFFFF"></path>
                        <path d="M83.3310585,18.9568691 C79.3628344,20.6280607 75.5315436,22.6069871 71.8722642,24.8755296 C68.1370705,27.0402098 64.5525038,29.4546321 61.1430561,32.1022999 C57.2910821,35.0543203 53.7013485,38.3331971 50.413848,41.9024008 C47.1004097,45.4690547 44.0455742,49.2671931 41.2725627,53.2679445 C38.7833864,57.2351626 36.3800438,60.966492 34.6204536,64.419044 C32.8608635,67.8715959 31.2514823,70.7451485 30.3287704,72.8467019 C29.4060585,74.9482552 28.5691803,76.106254 28.5691803,76.106254 C28.5691803,76.106254 28.5691803,74.7552554 28.8052228,72.4178134 C29.0282937,69.1385645 29.5526564,65.8867641 30.3716872,62.7034902 C31.488991,58.1436773 33.1232467,53.7261504 35.2427477,49.536615 C37.8058269,44.7458309 40.9479708,40.2877606 44.5986172,36.2625178 C51.5235083,28.8229505 60.331553,23.3919015 70.0912157,20.5437564 C74.4147904,19.2466296 78.9309283,18.7096902 83.4383506,18.9568691" id="Fill-9" fill="#FFFFFF"></path>
                        <path d="M376.045314,252.465181 C376.045314,299.771576 337.184123,338.135648 289.267479,338.135648 C241.350836,338.135648 202.511102,299.771576 202.511102,252.465181 C202.511102,205.158786 241.350836,166.687493 289.267479,166.687493 C337.184123,166.687493 376.045314,205.051564 376.045314,252.465181" id="Fill-11" fill="#FFFFFF"></path>
                        <path d="M283.645374,337.85687 C285.512256,337.985537 287.379138,338.135648 289.267479,338.135648 C291.15582,338.135648 293.022702,337.985537 294.911043,337.85687 L294.911043,226.495986 L283.645374,226.495986 L283.645374,337.85687" id="Fill-13" fill="#25292D"></path>
                        <path d="M334.287236,205.673452 C334.267653,204.522894 334.079688,203.381394 333.729318,202.285234 C333.664957,202.0003 333.578872,201.720706 333.471817,201.448901 L333.471817,201.448901 C333.078736,200.400011 332.528882,199.416702 331.840977,198.53246 L331.840977,198.53246 C331.840977,198.53246 326.755332,188.153359 289.782481,188.067582 L289.267479,188.067582 C267.809063,188.067582 257.079855,191.6488 251.886918,194.500908 C248.747351,195.738137 246.271644,198.23557 245.063142,201.384568 L245.063142,201.384568 C244.940233,201.706023 244.839852,202.035633 244.762724,202.371011 C244.4371,203.420241 244.263669,204.510702 244.247722,205.609119 C244.247722,205.609119 244.247722,205.802119 244.247722,205.909341 C244.033138,211.291891 245.814186,220.770325 258.174234,230.484649 C270.534282,240.198972 279.63265,243.179747 284.804129,244.209079 C285.2007,244.301303 285.601798,244.37288 286.0058,244.423523 C287.069693,244.607165 288.145348,244.714661 289.224562,244.745189 L289.224562,244.745189 C290.303776,244.714661 291.379432,244.607165 292.443325,244.423523 L293.666454,244.209079 C298.795016,243.179747 308.129427,240.048861 320.274891,230.484649 C332.420354,220.920436 334.415987,211.356224 334.201403,205.973674 C334.201403,205.845008 334.201403,205.737786 334.201403,205.609119" id="Fill-15" fill="#25292D"></path>
                        <path d="M290.74811,485.137161 C292.63645,465.022293 293.923955,444.821648 295.21146,424.663891 C295.876671,414.241902 296.391673,403.798468 296.284381,393.33359 C296.284381,388.33704 295.89813,383.383378 295.662087,378.322495 C295.662087,378.000828 295.662087,377.679162 295.662087,377.357496 C295.21146,373.283055 292.078532,347.335305 290.147274,331.316321 C289.325065,324.117965 283.47535,318.533687 276.24222,318.042224 C193.412734,312.187897 67.0870374,281.243596 23.3547851,270.049607 C19.230288,268.960116 14.836777,269.674688 11.2708361,272.014973 C7.70489518,274.355258 5.30294945,278.100463 4.66450458,282.315817 C1.19896752,304.697883 -0.00876266232,327.371161 1.05949065,349.994413 C2.15386988,373.261611 2.0465778,368.329394 7.28243136,398.930584 C8.398269,405.471133 9.85744131,407.186687 11.5741146,412.719348 C12.2822423,414.86379 40.2854755,405.085133 22.8183247,412.719348 C45.5642459,404.141579 32.4316952,412.097459 33.5475328,411.883015 C44.2767409,409.738573 40.9506864,413.620013 50.2207222,413.405569 C51.2549842,413.37696 52.283422,413.240404 53.2892758,412.998125 C58.5036709,411.775793 67.9453741,410.532017 72.2370573,409.524129 C83.8246021,406.822132 86.7429467,405.642688 98.5450756,404.055801 C109.960953,402.511803 117.578691,398.608918 129.037485,397.622475 C130.088947,397.622475 135.47501,396.057032 137.298975,395.821143 C137.710072,395.770515 138.118314,395.69894 138.522105,395.606699 L141.182949,395.092033 C138.350438,386.514264 143.32879,405.578355 141.182949,395.092033 C140.410446,391.210592 137.835436,373.518944 141.182949,395.092033 C141.783784,398.90914 140.818156,391.253481 141.182949,395.092033 L140.903989,395.092033 C142.219601,399.385737 143.124905,403.794421 143.60775,408.258908 C144.294419,414.413457 145.217131,418.316342 146.955263,443.62076 C147.926985,455.368126 148.120533,467.16684 147.53464,478.939723 C147.53464,479.475834 147.53464,480.033389 147.405889,480.569499 C146.461719,487.517492 146.71922,488.461047 145.539007,494.551262 L143.886709,501.392033 C143.886709,501.713699 143.7365,502.013921 143.672125,502.335588 C143.60775,502.657254 143.457541,503.515031 143.393166,503.750919 C142.883994,505.342982 142.282132,506.903939 141.590659,508.425803 C141.225865,509.154914 140.775239,510.956245 139.959819,512.478799 C139.766693,512.843354 139.251691,513.765465 138.565022,514.902019 C137.761825,516.186158 136.887835,517.424697 135.947095,518.611904 C135.111929,519.650476 134.223805,520.645385 133.286251,521.592679 L132.342081,522.536233 C130.590572,524.282223 128.604513,525.776208 126.441017,526.975229 C123.172764,528.843751 119.609707,530.141859 115.904934,530.81378 C115.353053,530.94496 114.794261,531.04519 114.231178,531.114002 C103.695096,532.443556 99.8111222,532.079001 89.2750398,528.004561 L88.6742041,527.768672 C82.4045228,525.104985 75.1260908,526.99165 70.9424289,532.36498 C66.758767,537.738309 66.7176504,545.252583 70.8422602,550.671315 L71.2285117,551.185981 C74.0199239,555.046807 78.4792113,557.354575 83.2452248,557.404864 L269.289694,559.916426 C277.167083,560.058174 283.817408,554.095506 284.525169,546.253764 C286.499343,525.881563 288.816852,505.509362 290.726651,485.137161" id="Fill-17" fill="#ED3624"></path>
                        <path d="M138.393355,385.249043 C138.393355,385.249043 142.685038,403.433913 143.865251,411.196794 C145.045464,418.959675 145.753591,421.919005 145.860883,422.841115 C145.968175,423.763225 150.860694,425.285779 151.204029,423.527336 C151.547364,421.768894 150.774861,409.138129 150.774861,408.880796 C150.774861,408.623463 152.126741,403.584024 152.126741,403.069358 C152.126741,402.554692 153.22112,389.280594 152.877786,388.422817 C152.011569,386.75297 150.666769,385.379181 149.015271,384.477044 C146.592724,383.402321 144.105948,382.478445 141.5692,381.710713 C140.441582,382.826436 139.381109,384.007949 138.393355,385.249043" id="Fill-19" fill="#ED3624"></path>
                        <path d="M85.2193991,527.875894 C66.2072423,521.892901 42.6888181,499.998146 31.7879427,476.409281 C42.216733,516.210129 75.7133207,557.447752 75.7133207,557.447752" id="Fill-21" fill="#ED3624"></path>
                        <path d="M103.437595,308.199234 L109.081158,320.722777 C109.960953,322.588442 110.883665,324.625662 111.870752,326.770104 L114.982222,333.503652 L118.286819,340.730423 C119.402656,343.217976 120.43266,345.726973 121.65579,348.214526 C122.87892,350.702079 123.801632,353.27541 124.938928,355.741518 C126.076224,358.207627 127.084769,360.716624 127.986023,363.096955 C128.887276,365.477286 129.78853,367.836172 130.625408,370.066392 C131.462286,372.296612 132.063122,374.462499 132.77125,376.499719 C133.479377,378.536939 133.736878,380.402604 134.187505,382.053824 C134.638132,383.705045 134.595215,385.313376 134.788341,386.557153 C134.906832,387.14454 134.906832,387.749653 134.788341,388.33704 C134.788341,388.894595 134.65959,389.344928 134.616673,389.730927 C134.509381,390.481482 134.466464,390.888926 134.466464,390.888926 L134.788341,389.64515 C134.895633,389.25915 135.024383,388.744484 135.174592,388.165484 C135.377579,387.549161 135.486099,386.905696 135.496468,386.256931 C135.583644,384.656932 135.583644,383.053379 135.496468,381.45338 C135.260426,379.716382 135.153134,377.679162 134.702507,375.620497 C134.25188,373.561833 133.84417,371.331613 133.136043,368.994171 C132.427915,366.656729 131.848538,364.233509 130.990201,361.831734 C130.131864,359.429959 129.273528,356.835184 128.200607,354.347631 C127.127686,351.860078 126.054765,349.329636 124.981844,346.799194 C123.908924,344.268752 122.664335,341.802644 121.505581,339.35798 L117.922025,332.28132 L114.359928,325.740772 L111.012415,319.950778 C106.720732,312.83123 103.544887,308.285012 103.544887,308.285012" id="Fill-23" fill="#A61E22"></path>
                        <path d="M567.068136,243.865968 C567.068136,243.865968 390.658496,314.28945 277.379517,325.504883 C273.087833,401.525359 264.847801,559.849528 264.847801,559.849528 L498.250995,565.039078 C498.250995,565.039078 616.122075,432.877104 567.046677,243.865968" id="Fill-27" fill="#ED3624"></path>
                        <path d="M7.79743335,266.060945 C142.685038,288.534699 235.514146,295.933025 289.052895,288.470366 C342.591643,281.007707 435.18471,263.187392 564.965211,234.859311 C569.535854,247.725964 569.664604,252.207848 571.531486,261.557616 C571.917738,266.404056 570.286898,274.081159 570.308357,277.769599 C570.308357,291.858585 358.49233,333.39643 290.447692,333.39643 C222.403054,333.39643 2.90491444,326.834437 2.00366096,311.094231 C1.35990848,300.522131 4.04221051,284.61037 7.79743335,266.060945 Z" id="Path" fill="#FFFFFF"></path>
                        <path d="M4.21387784,285.210814 C140.882531,301.036797 235.514146,306.762458 289.052895,301.551464 C342.591643,296.340469 436.53659,283.152149 571.531486,261.471839 C573.934829,275.796713 575.82317,286.754812 576.166504,290.936475 C576.166504,300.908131 358.49233,333.310653 290.447692,333.310653 C222.403054,333.310653 4.64304616,327.777992 1.10240748,315.940671 C1.35820388,305.63335 2.3983626,295.360416 4.21387784,285.210814 Z" id="Path" fill="#A61E22"></path>
                        <path d="M49.7486371,518.611904 C158.671558,538.297883 248.367738,544.345211 292.035615,540.763992 C335.703492,537.182774 425.077795,532.186223 531.275497,516.36024 C530.009451,519.105126 525.13839,526.93234 522.692131,530.899558 C521.426084,534.051888 512.499383,544.1951 512.392091,546.76843 C510.653959,549.899316 347.162286,573.981402 291.97124,571.922737 C236.780193,569.864073 74.2541484,555.968087 66.8939117,545.760542 C60.6005837,537.088862 54.8735997,528.020484 49.7486371,518.611904 Z" id="Path" fill="#FFFFFF"></path>
                        <path d="M58.7826303,533.837444 C169.336391,548.977206 248.06732,551.829314 291.69228,549.856427 C335.31724,547.88354 412.54608,541.814769 522.713589,530.899558 C518.63649,540.292215 500.954755,562.294192 498.272453,565.039078 C491.040967,567.505186 347.226661,573.981402 291.992698,571.922737 C236.758735,569.864073 77.8377039,565.489411 75.262694,557.276197 C71.1212197,551.893647 66.0999503,545.138654 58.7826303,533.837444 Z" id="Path" fill="#A61E22"></path>
                        <path d="M142.084202,401.889915 C107.064067,414.971012 85.519817,421.597338 72.0439316,423.763225 C51.8730203,427.022777 18.0760147,430.196552 13.3766216,424.192114 C7.08759361,414.538068 3.78834184,403.244381 3.89200159,391.725258 C4.70742141,390.159816 36.6160864,396.936253 69.0397533,389.001817 C104.188639,380.424048 125.732889,368.822616 132.256248,364.212065 C134.487011,368.204438 136.182469,372.472764 137.298975,376.907163 C137.921269,379.566271 141.16149,384.627155 142.084202,401.889915 Z" id="Path" fill="#FFFFFF"></path>
                        <path d="M5.15804815,387.307707 C3.20533227,388.379929 3.01220653,400.94636 7.81889176,413.448458 C9.70723239,416.729455 53.611152,410.853683 73.3958118,406.350354 C86.5927378,403.326691 101.291753,398.737584 139.916902,385.463487 C137.997544,374.971801 134.187667,364.915634 128.672692,355.784407 C125.883098,358.143293 118.758904,366.356507 84.1250199,375.513275 C84.1679367,375.513275 38.9979706,387.543596 5.15804815,387.307707 Z" id="Path" fill="#A61E22"></path>
                    </g>
                    <g id="Group-70">
                        <path d="M457.68656,472.291952 C399.748836,572.887736 319.108108,606.769923 247.587207,594.525158" id="Path" stroke="#1A6935" stroke-width="2"></path>
                        <path d="M661.670265,501.499255 C661.670265,501.499255 653.086898,511.985578 650.941057,514.365908 C641.43967,524.982422 631.192285,534.907805 620.27698,544.066433 C589.291027,570.078517 551.781715,590.793829 510.431347,596.6696 C486.161878,600.122152 457.27885,601.215818 437.880442,584.853724 C431.964613,579.854699 427.006009,573.823969 423.245802,567.054854 C414.8832,551.951701 413.429088,533.982469 419.254536,517.732683 C427.666236,494.143818 448.759859,476.623726 470.754735,464.121627 C510.860515,441.218985 558.21924,430.346663 603.796916,423.055559 C611.650696,421.797486 619.518782,420.660932 627.401174,419.645896 L665.210903,430.861329 L661.648806,501.499255" id="Fill-38" fill="#FFC612"></path>
                        <polygon id="Fill-40" fill="#ED3624" points="494.916912 443.534982 580.29995 584.532058 654.782113 524.830786 665.554238 481.169943 665.554238 412.955236 612.55195 405.106578"></polygon>
                        <path d="M516.933247,468.49629 C516.933247,468.49629 461.570533,471.777286 437.751691,517.496794 C437.751691,517.496794 446.506725,492.128043 522.877228,466.480514" id="Fill-42" fill="#FFFFFF"></path>
                        <path d="M555.772981,584.403391 C555.772981,584.403391 562.661132,582.258949 572.639296,578.398953 L580.643285,575.139401 L589.484152,571.300849 L598.840022,567.011965 L608.3461,562.18697 L617.723428,557.018864 C620.81344,555.324755 623.731785,553.394757 626.607212,551.61487 C629.48264,549.834983 632.143484,547.862096 634.718494,546.082209 C637.293504,544.302322 639.568096,542.286546 641.735396,540.570992 C643.902696,538.855438 645.705203,536.839663 647.378959,535.252776 C648.802698,533.695568 650.142181,532.063466 651.391683,530.363447 C651.930127,529.720104 652.364547,528.996542 652.679188,528.219005 L653.558983,526.396229 L654.288569,524.89512 L653.451691,526.181785 L652.464604,527.747228 C652.092883,528.444484 651.598612,529.069184 651.005432,529.591448 C649.782302,530.685114 648.430422,532.31489 646.713749,533.687333 C644.997075,535.059776 642.979984,536.710996 640.72685,538.212106 C638.473717,539.713215 636.048916,541.450214 633.388072,543.015656 L625.040748,548.012207 L616.006755,553.094535 L606.607969,558.155418 L597.144807,563.130524 L587.960605,567.741075 L579.377238,572.158626 L571.673667,576.125844 L555.772981,584.403391" id="Fill-44" fill="#A61E22"></path>
                        <path d="M202.889326,530.899558 C202.889326,530.899558 142.526801,520.005791 155.101433,505.638029 C167.676064,491.270266 221.772732,489.211601 232.544857,469.375511 C240.184053,455.286526 224.691076,438.195321 224.691076,438.195321 L194.906795,395.113477 C194.906795,395.113477 159.822284,347.249527 161.624791,293.788583 C162.676253,262.286727 185.465092,188.453581 192.675119,182.492032 C232.931108,149.231733 285.933396,165.336494 368.891634,157.70228 C451.849871,150.068066 454.317589,108.680331 454.317589,108.680331 C483.865828,151.719286 557.317986,146.980069 586.994976,170.869155 C597.573975,179.446924 623.195324,259.970729 624.568663,293.810027 C626.585754,343.024976 584.763301,395.199255 584.763301,395.199255 C584.763301,395.199255 576.37306,415.035345 522.297851,438.709987 C527.147453,436.565545 532.597891,439.932319 537.125617,439.932319 C543.123539,439.965991 549.110362,439.412948 555.000478,438.281099 C555.000478,438.281099 539.486043,455.436636 547.146697,469.461289 C557.875905,489.297379 611.994031,491.377488 624.568663,505.723806 C637.143295,520.070125 576.802228,530.985336 576.802228,530.985336 C580.18809,531.335888 583.591186,531.493402 586.994976,531.46221 C609.137007,531.239325 631.016534,526.640333 651.370225,517.925682 C692.441634,500.512812 680.70388,463.521184 680.70388,463.521184 C680.70388,463.521184 710.938788,477.052614 739.220981,477.052614 C755.293335,477.052614 770.743394,472.76373 779.627179,458.953522 C772.058147,461.504196 764.138539,462.864264 756.151671,462.985073 C719.672364,462.985073 710.037535,429.124331 734.34992,419.796007 C763.275865,408.687796 775.850497,381.196047 750.701234,357.778738 C725.55197,334.361429 782.137813,314.032117 773.339863,293.810027 C764.541912,273.587937 694.11539,260.528284 690.338709,237.025197 C686.562027,213.522111 741.838908,199.154348 731.839286,188.710914 C721.839664,178.267481 736.882014,175.007929 731.839286,161.948276 C726.796558,148.888623 671.476761,149.338955 599.376482,69.2654834 C544.099602,7.87010291 450.412157,0.643332663 409.684083,0.643332663 C397.281118,0.643332663 389.792131,1.30810975 389.792131,1.30810975 C389.792131,1.30810975 382.303144,0.643332663 369.921637,0.643332663 C329.150647,0.643332663 235.48466,7.82721407 180.20778,69.2654834 C108.107501,149.338955 52.7662455,148.910067 47.7449761,161.948276 C42.7237067,174.986484 57.8089733,178.267481 47.7449761,188.710914 C37.6809789,199.154348 93.0222344,213.522111 89.2455531,237.025197 C85.4688719,260.528284 15.0208914,273.480715 6.28731596,293.788583 C-2.44625945,314.09645 54.0752089,334.189874 28.9259451,357.692961 C3.77668126,381.196047 16.3513132,408.602019 45.2772583,419.710229 C69.5896439,429.038553 59.8904397,462.899295 23.4755074,462.899295 C15.4908962,462.792318 7.57134703,461.446728 0,458.910633 C8.88378432,472.635063 24.333844,477.009725 40.4061978,477.009725 C68.6883904,477.009725 98.9232988,463.478295 98.9232988,463.478295 C98.9232988,463.478295 87.1855452,500.469923 128.278412,517.882794 C148.632103,526.597444 170.51163,531.196436 192.653661,531.414224 C196.064579,531.449848 199.474778,531.292336 202.867867,530.942447" id="Fill-68" fill="#6B3917"></path>
                        <path d="M320.932073,236.832198 L320.932073,236.832198 C320.932073,236.832198 320.932073,236.703531 320.824781,236.639198 C320.717489,236.574865 320.545822,236.188865 320.266862,235.802865 C319.774843,234.932702 319.168639,234.13217 318.464355,233.422535 C313.099751,226.989208 298.550945,213.307667 270.418961,213.307667 C241.128223,213.307667 226.472125,229.176539 221.601064,235.82431 C220.922743,236.590825 220.345794,237.441269 219.884391,238.354752 L219.691265,238.697862 C217.709577,243.53013 219.130777,249.089238 223.188987,252.379404 C223.897115,253.001292 229.454845,257.247287 243.789067,250.363628 L243.789067,250.492295 C262.602951,241.103614 284.889001,241.845729 303.035754,252.465181 C306.056668,254.268551 309.679944,254.771455 313.078293,253.859069 C316.535036,252.860036 319.391264,250.41714 320.912748,247.158357 C322.434232,243.899574 322.47257,240.142757 321.017907,236.853642" id="Fill-13-2" fill="#25292D"></path>
                        <path d="M559.807163,236.832198 L559.807163,236.832198 L559.678412,236.639198 C559.57112,236.467642 559.399453,236.188865 559.120493,235.802865 C558.628474,234.932702 558.02227,234.13217 557.317986,233.422535 C551.953382,226.989208 537.404576,213.307667 509.272593,213.307667 C480.003313,213.307667 465.325756,229.176539 460.476154,235.82431 C459.784115,236.584709 459.199326,237.436069 458.738022,238.354752 C458.680148,238.472657 458.61567,238.587209 458.544897,238.697862 C458.032114,239.998279 457.741951,241.375656 457.68656,242.772303 C457.642072,244.033358 457.801482,245.293327 458.158645,246.503632 C458.849649,248.800035 460.200167,250.843132 462.042618,252.379404 C462.750746,253.001292 468.329934,257.247287 482.642698,250.363628 L482.642698,250.492295 C485.763339,248.939684 489.007542,247.648587 492.341902,246.632299 C508.957229,241.763198 526.840486,243.869383 541.867927,252.465181 C544.888841,254.268551 548.512117,254.771455 551.910466,253.859069 C555.371473,252.866205 558.232571,250.424032 559.755064,247.163087 C561.277557,243.902141 561.312212,240.142059 559.85008,236.853642" id="Fill-14" fill="#25292D"></path>
                        <path d="M536.095613,591.737383 C511.776074,558.369863 496.497682,534.85248 490.260436,521.185235 C480.818733,500.684367 467.471598,465.708515 472.471409,458.996411 C477.47122,452.284306 498.757969,438.409765 502.835068,439.288987 C504.723408,439.717875 508.349881,475.615838 526.439326,507.761026 C545.966484,542.586768 573.476174,569.327962 580.29995,574.903512 L580.29995,574.903512 C580.235575,575.611178 559.935913,587.920276 536.095613,591.737383 Z" id="Path" fill="#FFFFFF"></path>
                        <path d="M545.193981,519.791347 C565.171767,553.930867 584.656009,565.467966 587.982063,567.741075 C592.724373,571.000627 569.184491,583.13817 555.000478,587.041055 C529.486421,549.963649 516.375328,530.685114 509.186759,517.539683 C498.457551,497.853703 479.338102,452.927639 482.256446,449.946864 C485.174791,446.96609 501.783605,434.421103 503.500279,436.158101" id="Path" fill="#A61E22"></path>
                    </g>
                </g>
                <path d="M861.896759,489 C861.896759,489 879.444281,865.865019 457,769.117453" id="Path" stroke="#1A6935" stroke-width="2" stroke-linecap="round" stroke-linejoin="round"></path>
                <circle id="Oval" fill="#F8EC3B" fill-rule="nonzero" cx="817" cy="514" r="19"></circle>
                <circle id="Oval" fill="#F8EC3B" fill-rule="nonzero" cx="292.5" cy="893.5" r="29.5"></circle>
                <circle id="Oval" fill="#F8EC3B" fill-rule="nonzero" cx="377.5" cy="861.5" r="28.5"></circle>
                <circle id="Oval" fill="#F8EC3B" fill-rule="nonzero" cx="540.5" cy="779.5" r="28.5"></circle>
                <circle id="Oval" fill="#F8EC3B" fill-rule="nonzero" cx="691" cy="768" r="29"></circle>
                <circle id="Oval" fill="#F8EC3B" fill-rule="nonzero" cx="797.5" cy="694.5" r="24.5"></circle>
                <circle id="Oval" fill="#F8EC3B" fill-rule="nonzero" cx="849" cy="597" r="25"></circle>
                <path d="M725.61372,33.3164729 C722.045309,29.3158689 696.700995,26.6415522 685.114408,19.9666314 C673.527821,13.2917107 654.009044,19.9666314 654.009044,19.9666314 C654.009044,19.9666314 667.444326,29.424581 666.906915,43.7093462 C666.820897,45.6256682 666.503253,47.524132 665.961071,49.3623735 C660.844916,66.7563038 624,97 624,97 L645.49645,96.3912124 C645.49645,96.3912124 702.053611,69.4088782 716.434736,58.3202476 C719.778802,55.8620834 722.686257,52.8478425 725.033316,49.4058584 C729.569067,42.1656349 728.193294,36.2082138 725.61372,33.3164729 Z" id="Path" fill="#D42027" fill-rule="nonzero"></path>
                <path d="M723.648445,32.3164729 C720.100318,28.3158689 694.725839,25.6415522 683.135293,18.9666314 C671.544746,12.2917107 652.019299,18.9666314 652.019299,18.9666314 C652.019299,18.9666314 665.459172,28.4463234 664.921577,42.7093462 C664.835531,44.6256682 664.517778,46.524132 663.97541,48.3623735 C658.857507,65.7563038 622,96 622,96 L644.708009,96 C644.708009,96 699.972765,68.4088782 714.272789,57.3202476 C717.617998,54.8620834 720.526447,51.8478425 722.874308,48.4058584 C727.605143,41.1873773 726.207396,35.2082138 723.648445,32.3164729 Z" id="Path" fill="#ED3624" fill-rule="nonzero"></path>
                <path d="M621,96 C621,96 637.380783,22.0310231 650.363759,19.3034577 C663.346735,16.5758923 670.792545,32.508338 659.361654,56.1039437 C647.930762,79.6995494 621,96 621,96 Z" id="Path" fill="#D42027" fill-rule="nonzero"></path>
                <path d="M619.935504,96 C619.935504,96 622.660448,9.86292308 592.686063,12.0406064 C562.711677,14.2182897 619.935504,96 619.935504,96 Z" id="Path" fill="#D42027" fill-rule="nonzero"></path>
                <path d="M585.620574,37.7265823 C584.786015,35.5097077 584.132975,33.2283186 583.667937,30.9050633 C580.320561,12.2911392 596.263513,14.356962 596.263513,14.356962 C590.769611,12.4145348 585.023226,11.2837131 579.204769,11 C571.394225,11 565.257369,15.7556962 556.738726,15.3037975 C548.220083,14.8518987 533.457296,20.0594937 535.130984,32.5189873 C535.495762,35.2949367 538.864596,40.0291139 543.864202,45.6886076 C561.459384,65.6367089 602.765147,96 603.237213,96 L618,96 C618,96 593.32383,59.0949367 585.620574,37.7265823 Z" id="Path" fill="#D42027" fill-rule="nonzero"></path>
                <path d="M588.085185,36.5833748 C587.246154,34.3846479 586.587182,32.1228516 586.114627,29.8198109 C582.736528,11.3056247 598.825809,13.3603783 598.825809,13.3603783 C593.284145,11.4154506 587.484147,10.2833082 581.610495,10 C573.728263,10 567.535081,14.7516177 558.938251,14.2807367 C550.341421,13.8098556 535.443137,19.0323544 537.132186,31.5107018 C537.500312,34.271777 540.900066,38.9805874 545.945561,44.6311598 C563.702237,64.4509706 603.200015,96 603.676413,96 L621,96 C621,96 595.83749,57.8800398 588.085185,36.5833748 Z" id="Path" fill="#ED3624" fill-rule="nonzero"></path>
                <polygon id="Path" fill="#D42027" fill-rule="nonzero" points="602.885986 90 546 111.27603 565.539192 119.091715 565.539192 139 609 99.7696057"></polygon>
                <polygon id="Path" fill="#D42027" fill-rule="nonzero" points="639 96.8679928 691.07127 156 699.739088 134.907776 726 126.423146 641.874969 84"></polygon>
                <path d="M645.203068,86.1270188 C644.356816,84.7627971 643.151385,83.7044713 641.742705,83.0889403 C640.143866,82.3586783 638.424119,81.9883857 636.688478,82.0006734 L611.333455,82.0006734 C609.198923,81.9774415 607.095603,82.5556716 605.230633,83.6784183 C603.393016,84.6152854 602.160536,86.5446778 602.000961,88.734325 C601.971277,91.1569651 602.630099,93.5310863 603.888431,95.5359932 C604.999942,97.213738 606.803525,101 608.711968,101 L638.764696,101 C643.90281,101 646,92.4752425 646,88.7796694 C645.987828,87.8288117 645.710032,86.9041455 645.203068,86.1270188 L645.203068,86.1270188 Z" id="Path" fill="#D42027" fill-rule="nonzero"></path>
                <path d="M645.203071,86.10471 C644.361523,84.7411715 643.153945,83.6888929 641.742722,83.0893774 C640.143889,82.3591331 638.42415,81.9888496 636.688516,82.001137 L611.333596,82.001137 C609.200948,81.9709759 607.097753,82.5413465 605.230799,83.6561692 C603.398992,84.6003912 602.169152,86.5256116 602.00114,88.7119526 C601.968739,91.134944 602.627798,93.5098712 603.888603,95.5134548 C605.000109,97.1911587 606.803685,101 608.712119,101 L638.764725,101 C643.902819,101 646,92.4754505 646,88.7572959 C645.983971,87.807156 645.706534,86.8837063 645.203071,86.10471 L645.203071,86.10471 Z" id="Path" fill="#ED3624" fill-rule="nonzero"></path>
                <path d="M133,874.202831 C133,874.202831 145.66235,912.78022 195.689362,928.293394 C201.927469,929.91992 208.406999,930.389128 214.811656,929.678112 C226.23977,928.426709 236.198997,921.271489 241.102128,910.789688 C247.690842,895.99051 249,869.810677 249,862 L133,874.202831 Z" id="Path" fill="#FFC612"></path>
                <circle id="Oval" fill="#F8EC3B" fill-rule="nonzero" cx="713" cy="225" r="19"></circle>
                <circle id="Oval" fill="#F8EC3B" fill-rule="nonzero" cx="635" cy="214" r="19"></circle>
                <circle id="Oval" fill="#F8EC3B" fill-rule="nonzero" cx="565" cy="178" r="19"></circle>
            </g>
        </g>
    </g>
</svg>