<?xml version="1.0" encoding="UTF-8"?>
<svg width="846px" height="947px" viewBox="0 0 846 947" version="1.1" xmlns="http://www.w3.org/2000/svg" xmlns:xlink="http://www.w3.org/1999/xlink">
    <!-- Generator: Sketch 56.2 (81672) - https://sketch.com -->
    <title>098</title>
    <desc>Created with Sketch.</desc>
    <defs>
        <polygon id="path-1" points="0 0.614308509 423.776221 0.614308509 423.776221 355.246962 0 355.246962"></polygon>
        <polygon id="path-3" points="0.767994186 0.614308509 424.544767 0.614308509 424.544767 355.354412 0.767994186 355.354412"></polygon>
        <polygon id="path-5" points="0.665799419 0.0386627907 746.377137 0.0386627907 746.377137 798.110465 0.665799419 798.110465"></polygon>
        <polygon id="path-7" points="0.328343023 0.808866279 349.422965 0.808866279 349.422965 124.665945 0.328343023 124.665945"></polygon>
    </defs>
    <g id="Bearpots" stroke="none" stroke-width="1" fill="none" fill-rule="evenodd">
        <g id="098" transform="translate(-177.000000, -126.000000)">
            <g transform="translate(177.000000, 125.000000)">
                <g id="Group-3" transform="translate(0.000000, 575.371366)">
                    <mask id="mask-2" fill="white">
                        <use xlink:href="#path-1"></use>
                    </mask>
                    <g id="Clip-2"></g>
                    <path d="M38.5926453,36.1739971 L-0.00110465116,306.620218 C-0.00110465116,306.620218 121.836395,352.81673 423.776221,355.246962 L422.842791,17.8450727 C422.842791,17.8450727 56.2560174,-31.1876308 38.5926453,36.1739971" id="Fill-1" fill="#123525" mask="url(#mask-2)"></path>
                </g>
                <path d="M813.304942,553.448721 C813.304942,553.448721 809.759012,560.929971 790.897093,563.155843 C772.035174,565.378953 771.493895,542.808169 771.493895,542.808169 L813.304942,553.448721 Z" id="Fill-4" fill="#013518"></path>
                <g id="Group-8" transform="translate(420.767442, 575.371366)">
                    <mask id="mask-4" fill="white">
                        <use xlink:href="#path-3"></use>
                    </mask>
                    <g id="Clip-7"></g>
                    <path d="M385.95157,36.1739971 L424.54532,306.620218 C424.54532,306.620218 306.284128,358.00859 0.767994186,355.246962 L1.70142442,17.8450727 C1.70142442,17.8450727 368.288198,-31.1876308 385.95157,36.1739971" id="Fill-6" fill="#123525" mask="url(#mask-4)"></path>
                </g>
                <g id="Group-11" transform="translate(48.947674, 149.080669)">
                    <mask id="mask-6" fill="white">
                        <use xlink:href="#path-5"></use>
                    </mask>
                    <g id="Clip-10"></g>
                    <path d="M745.681206,389.961192 C741.287456,326.068169 726.717108,265.077616 703.759695,208.431105 C697.675828,193.424419 691.216381,178.622093 683.978154,164.26439 C709.625392,148.890407 726.871759,120.68314 726.871759,88.327907 C726.871759,39.5686047 687.819578,0.0386627907 639.637456,0.0386627907 L107.482805,0.0386627907 C59.3006831,0.0386627907 20.2429797,39.5686047 20.2429797,88.327907 C20.2429797,120.655523 37.4644913,148.846221 63.0813517,164.228488 C55.843125,178.580669 49.3836773,193.380233 43.3025727,208.378634 C20.3341134,265.038953 5.75271802,326.046076 1.36172965,389.955669 C1.02757267,397.55843 0.665799419,405.15843 0.665799419,412.844041 C0.665799419,468.073837 9.53890988,521.17718 25.6999564,570.930669 C30.5189971,584.937645 39.7870203,609.054942 51.1400727,625.160756 C52.3800436,626.814971 53.5509738,628.427762 54.9649273,630.164826 L55.464782,630.788953 C60.4992297,636.917006 66.6079506,643.47311 73.9538808,649.982267 C81.3660901,656.494186 89.9519913,663.003343 99.7281541,668.446512 C109.388328,673.859302 120.661294,678.233721 131.782369,679.680814 C143.419869,681.37093 155.70359,679.349419 165.076555,672.693895 C174.634549,666.195785 181.466817,654.828924 185.421468,641.97907 C193.311439,615.942442 192.436003,586.442733 190.02234,559.762645 C187.379462,532.86439 182.565945,507.866134 177.782805,486.629215 C168.075683,444.116715 158.55359,416.514244 158.55359,416.514244 C158.55359,416.514244 169.928735,443.351744 182.588038,485.336773 C188.845887,506.338953 195.426846,531.141134 200.002863,558.420494 C204.230916,585.647384 207.641526,615.641424 200.751265,646.301017 C197.210858,661.360174 189.829026,677.250581 176.393706,687.985029 C162.941817,698.907267 146.123503,702.281977 131.022922,702.654797 C115.118706,702.765262 101.004026,699.092297 88.2038808,694.157267 C86.6407994,693.549709 85.3096948,692.762645 83.7963227,692.116424 C107.206642,727.846366 135.082515,760.240262 166.426991,788.842442 C183.148648,798.149128 210.394869,805.020058 246.481061,786.055959 C309.404753,752.990988 372.328445,749.315262 372.328445,749.315262 C372.328445,749.315262 435.252137,752.990988 498.173067,786.055959 C540.456352,808.273256 570.602282,795.04782 585.876846,783.976453 C614.976119,756.636337 641.001701,726.015407 663.050538,692.417442 C661.636584,693.016715 660.402137,693.748547 658.952282,694.317442 C646.146613,699.249709 632.034695,702.922674 616.133241,702.812209 C601.029898,702.43939 584.211584,699.06468 570.759695,688.147965 C557.321613,677.410756 549.942544,661.52311 546.402137,646.45843 C539.509113,615.801599 542.919724,585.807558 547.150538,558.580669 C551.729317,531.301308 558.307515,506.499128 564.565363,485.496948 C577.224666,443.509157 588.599811,416.674419 588.599811,416.674419 C588.599811,416.674419 579.077718,444.27689 569.370596,486.78939 C564.587456,508.02907 559.771177,533.027326 557.131061,559.925581 C554.717398,586.605669 553.841962,616.105378 561.731933,642.136483 C565.683823,654.989099 572.518852,666.355959 582.074084,672.851308 C591.449811,679.512355 603.733532,681.531105 615.36827,679.840988 C626.492108,678.388372 637.767834,674.016715 647.425247,668.601163 C657.20141,663.163517 665.787311,656.651599 673.202282,650.13968 C683.180044,641.299709 690.735858,632.451453 696.535276,624.636047 C705.585131,611.606686 713.279026,593.603634 718.418416,579.828634 C736.479462,527.537209 746.377137,471.371221 746.377137,412.844041 C746.377137,405.161192 746.015363,397.561192 745.681206,389.961192" id="Fill-9" fill="#FFC600" mask="url(#mask-6)"></path>
                </g>
                <path d="M156.429651,193.116759 C132.257122,193.116759 112.663372,212.948009 112.663372,237.410509 C112.663372,253.276061 120.97311,267.086962 133.361773,274.907892 C148.506541,249.735654 165.407703,225.773009 183.998983,203.268503 C176.454215,197.018939 166.940407,193.116759 156.429651,193.116759" id="Fill-12" fill="#2B2B2B"></path>
                <path d="M688.58375,193.116759 C678.053663,193.116759 668.523285,197.035509 660.972994,203.304404 C679.55875,225.80891 696.45439,249.768794 711.593634,274.93827 C724.012674,267.122863 732.352791,253.298154 732.352791,237.410509 C732.352791,212.948009 712.756279,193.116759 688.58375,193.116759" id="Fill-14" fill="#2B2B2B"></path>
                <path d="M648.184172,622.705102 C648.184172,622.705102 648.026759,629.112078 647.043619,638.41048 C645.999724,647.700596 643.969927,659.840712 641.536933,671.867602 C639.00452,683.869637 636.115858,695.794346 633.514404,704.739259 C632.302049,709.224142 630.854956,712.924724 630.123125,715.562078 C629.264259,718.180102 628.629084,719.671381 628.629084,719.671381 C628.629084,719.671381 627.607282,713.344491 627.524433,703.880392 C627.491294,694.430102 628.717456,681.919927 631.230538,669.688677 C633.782282,657.454666 637.57952,645.532718 641.219346,636.858445 C644.906119,628.186933 648.184172,622.705102 648.184172,622.705102" id="Fill-16" fill="#FFFFFF"></path>
                <g id="Group-20" transform="translate(246.784884, 0.952762)">
                    <mask id="mask-8" fill="white">
                        <use xlink:href="#path-7"></use>
                    </mask>
                    <g id="Clip-19"></g>
                    <path d="M0.328343023,124.665945 L349.422965,124.665945 C307.622965,95.5721948 258.526744,76.4617297 205.332267,71.1732122 L226.710029,12.2842587 C226.710029,12.2842587 213.100727,0.80693314 174.877035,0.80693314 C136.650581,0.80693314 123.046802,12.2842587 123.046802,12.2842587 L144.421802,71.1732122 C91.2273256,76.4617297 42.1311047,95.5721948 0.328343023,124.665945" id="Fill-18" fill="#FFC600" mask="url(#mask-8)"></path>
                </g>
                <path d="M155.038067,159.842456 C155.038067,159.842456 148.523387,162.369346 140.031381,167.525305 C135.753619,170.024578 130.984288,173.170073 126.217718,176.887224 C121.415247,180.554666 116.692863,184.912515 112.351584,189.610044 C107.877747,194.210916 104.124695,199.430392 100.526294,204.359898 C97.2979506,209.526904 94.1607413,214.373561 91.876875,218.85016 C89.308561,223.191439 87.5190262,227.06048 86.2017297,229.772398 C84.848532,232.47327 83.920625,234.011497 83.920625,234.011497 C83.920625,234.011497 83.9344331,232.266148 84.2271657,229.214549 C84.6855959,226.220945 84.6662645,221.672544 86.2486773,216.613241 C87.3560901,211.391003 89.664811,205.597108 92.5700436,199.532573 C95.7182994,193.586788 99.8248401,187.63548 104.690828,182.302776 C114.580218,171.734026 127.471497,164.509608 137.719898,161.897108 C147.973823,159.063677 155.038067,159.842456 155.038067,159.842456" id="Fill-21" fill="#FFFFFF"></path>
                <path d="M263.144753,231.1325 C307.397078,231.1325 343.273387,267.006047 343.273387,311.261134 C343.273387,355.513459 307.397078,391.387006 263.144753,391.387006 C218.892427,391.387006 183.018881,355.513459 183.018881,311.261134 C183.018881,267.006047 218.892427,231.1325 263.144753,231.1325" id="Fill-23" fill="#FFFFFF"></path>
                <path d="M263.144753,274.923358 C260.349985,274.923358 258.485887,274.923358 255.691119,275.854026 C257.555218,278.648794 257.555218,281.443561 257.555218,285.171759 C257.555218,296.350828 249.168154,304.737892 237.989084,304.737892 C234.263648,304.737892 230.535451,303.804462 227.740683,301.943125 C226.807253,304.737892 226.807253,307.53266 226.807253,311.260858 C226.807253,330.826991 242.647951,346.664927 262.214084,346.664927 C281.780218,346.664927 297.618154,330.826991 297.618154,311.260858 C298.551584,290.761294 282.710887,274.923358 263.144753,274.923358" id="Fill-25" fill="#2B2B2B"></path>
                <path d="M581.791875,231.1325 C626.044201,231.1325 661.920509,267.006047 661.920509,311.261134 C661.920509,355.513459 626.044201,391.387006 581.791875,391.387006 C537.539549,391.387006 501.663241,355.513459 501.663241,311.261134 C501.663241,267.006047 537.539549,231.1325 581.791875,231.1325" id="Fill-27" fill="#FFFFFF"></path>
                <path d="M581.791875,274.923358 C578.997108,274.923358 577.133009,274.923358 574.338241,275.854026 C576.20234,278.648794 576.20234,281.443561 576.20234,285.171759 C576.20234,296.350828 567.815276,304.737892 556.636206,304.737892 C552.908009,304.737892 549.182573,303.804462 546.387805,301.943125 C545.454375,304.737892 545.454375,307.53266 545.454375,311.260858 C545.454375,330.826991 561.295073,346.664927 580.861206,346.664927 C600.42734,346.664927 616.265276,330.826991 616.265276,311.260858 C618.126613,290.761294 601.358009,274.923358 581.791875,274.923358" id="Fill-29" fill="#2B2B2B"></path>
                <path d="M421.536541,346.325247 C481.742791,346.325247 530.549041,395.131497 530.549041,455.334985 C530.549041,515.541235 481.742791,564.347485 421.536541,564.347485 C361.333052,564.347485 312.526802,515.541235 312.526802,455.334985 C312.526802,395.131497 361.333052,346.325247 421.536541,346.325247" id="Fill-31" fill="#FFFFFF"></path>
                <path d="M477.695625,406.850465 C477.695625,405.339855 477.411177,403.90657 477.005218,402.525756 C476.831235,401.846395 476.687631,401.445959 476.687631,401.445959 L476.676584,401.445959 C476.171206,400.098285 475.483561,398.852791 474.641265,397.717762 L474.646788,397.703953 C474.646788,397.703953 468.28952,384.437093 422.175858,384.307297 L422.175858,384.29625 L421.855509,384.304535 L421.53516,384.29625 L421.53516,384.307297 C394.708706,384.38186 381.367282,388.891599 374.88298,392.663983 C370.969753,394.25468 367.893299,397.449884 366.393735,401.445959 L366.371642,401.445959 C366.371642,401.445959 366.205945,401.915436 366.009869,402.7025 C365.637049,404.030843 365.377456,405.403372 365.377456,406.850465 L365.416119,407.234331 C365.139956,414.113547 367.371352,426.234331 382.792282,438.66718 C396.550712,449.76064 407.398387,454.068779 414.084288,455.761657 L414.084288,564.346105 L421.537922,564.346105 L428.991555,564.346105 L428.991555,455.758895 C435.677456,454.060494 446.519608,449.749593 460.269753,438.66718 C475.627166,426.284041 477.899985,414.212965 477.648677,407.31718 L477.695625,406.850465 Z" id="Fill-33" fill="#2B2B2B"></path>
                <path d="M115.81577,762.733721 C115.81577,762.733721 109.477834,755.498256 102.184375,743.023983 C94.8632994,730.613227 87.0755087,712.894622 81.6102471,694.493895 C76.0759448,676.098692 72.7316134,657.170494 71.331468,642.884593 C69.9672238,628.573837 70.1881541,618.941279 70.1881541,618.941279 C70.1881541,618.941279 71.0442587,621.208576 72.2842297,625.199128 C73.4965843,629.184157 75.2253634,634.870349 77.3021076,641.699855 C81.3230378,655.336773 86.2884448,673.480669 91.7481831,691.395349 C97.0090843,709.37907 102.899637,727.119767 107.666206,740.422529 C110.088154,747.094622 112.101381,752.659302 113.515334,756.550436 C115.053561,760.438808 115.81577,762.733721 115.81577,762.733721" id="Fill-35" fill="#FFFFFF"></path>
                <path d="M671.418023,894.954666 C686.068459,878.089404 699.672238,860.274142 711.997384,841.497834 C710.586192,842.097108 709.348983,842.828939 707.899128,843.397834 C695.093459,848.330102 680.981541,852.003067 665.080087,851.892602 C649.976744,851.519782 633.15843,848.145073 619.706541,837.228358 C608.516424,828.286206 601.57093,815.770509 597.503052,803.133299 L422.468314,814.63548 L421.275291,898.395654 C421.275291,898.395654 421.949128,898.437078 423.172529,898.539259 C610.087791,912.822398 668.943605,895.705828 671.418023,894.954666" id="Fill-37" fill="#754C29"></path>
                <path d="M32.0067151,553.448721 C32.0067151,553.448721 35.5526453,560.929971 54.414564,563.155843 C73.2764826,565.378953 73.8177616,542.808169 73.8177616,542.808169 L32.0067151,553.448721 Z" id="Fill-39" fill="#013518"></path>
                <path d="M173.302922,894.59593 C158.652485,877.730669 145.048706,859.918169 132.723561,841.139099 C134.134753,841.738372 135.371962,842.472965 136.824578,843.039099 C149.627485,847.974128 163.739404,851.647093 179.640858,851.536628 C194.744201,851.163808 211.562515,847.789099 225.014404,836.869622 C236.20452,827.927471 243.150015,815.411773 247.217892,802.777326 L422.252631,814.279506 L423.445654,870.423401 C423.445654,870.423401 422.771817,898.081105 421.551177,898.183285 C234.633154,912.466424 175.77734,895.347093 173.302922,894.59593" id="Fill-41" fill="#754C29"></path>
                <path d="M247.415073,804.891628 C245.285858,813.955291 236.247049,823.670698 230.85359,832.030145 C265.285567,835.391047 290.239637,843.570988 325.59952,841.091047 C414.090363,834.882907 423.162311,835.073459 423.162311,835.073459 C423.162311,835.073459 445.075828,832.019099 514.508677,837.481599 C532.185858,838.873459 577.747195,838.061541 611.607515,829.329273 C606.214055,820.969826 597.481788,812.889302 595.349811,803.822878 C594.013183,797.874331 593.071468,791.947878 592.441817,786.06561 L253.269724,786.06561 C252.640073,792.226802 248.81798,798.655872 247.415073,804.891628" id="Fill-43" fill="#FFFCCC"></path>
                <path d="M674.686686,519.92891 L517.867645,569.870189 L453.726076,590.971788 C453.726076,590.971788 446.653547,600.469026 440.994971,603.296933 C435.336395,606.127602 437.794244,617.116119 439.768808,617.776148 C441.737849,618.433416 443.383779,629.609724 440.754709,631.584288 C438.122878,633.55609 435.800349,643.749259 438.440465,648.021497 C441.083343,652.296497 429.247006,666.43327 429.247006,666.43327 C429.247006,666.43327 424.381017,670.70827 423.392355,676.626439 C423.083052,678.493299 422.884215,679.702892 422.746134,680.550712 C422.619099,679.769172 422.456163,678.791555 422.237994,677.474259 C421.249331,671.55609 416.383343,667.28109 416.383343,667.28109 C416.383343,667.28109 404.549767,653.144317 407.189884,648.869317 C409.83,644.597078 407.507471,634.40391 404.878401,632.429346 C402.24657,630.457544 403.889738,619.281235 405.864302,618.621206 C407.836105,617.963939 410.293953,606.978183 404.635378,604.147515 C398.976802,601.319608 391.907035,591.819608 391.907035,591.819608 L327.762703,570.718009 L170.943663,520.77673 L50.4206977,573.714375 C51.5750581,628.303474 61.3318895,680.735741 78.2661919,729.754637 C83.4055814,743.53516 91.0967151,761.535451 100.14657,774.564811 C104.012849,779.773241 108.68,785.442863 114.305436,791.261613 C138.483488,785.105945 169.941192,763.170334 199.479564,748.958997 C214.121715,741.914084 239.437558,737.393299 241.160814,736.399113 C240.945407,727.396206 240.332326,718.47891 239.553547,709.851584 C236.910669,682.953328 232.09439,657.955073 227.31125,636.715392 C217.60689,594.205654 208.082035,566.600422 208.082035,566.600422 C208.082035,566.600422 219.45718,593.437922 232.116483,635.422951 C238.377093,656.427892 244.955291,681.227311 249.531308,708.506672 C253.764884,735.736323 257.172733,765.730363 250.279709,796.387195 C248.150494,805.453619 242.18814,815.856672 236.791919,824.218881 C271.223895,827.57702 290.240465,835.284724 325.600349,832.807544 C414.091192,826.599404 423.160378,826.787195 423.160378,826.787195 C423.160378,826.787195 445.073895,823.735596 514.509506,829.195334 C532.183924,830.587195 572.572733,831.087049 606.433052,822.357544 L606.433052,822.307834 C601.039593,813.951148 597.479855,804.603038 595.35064,795.539375 C588.454855,764.882544 591.865465,734.888503 596.099041,707.661613 C600.675058,680.382253 607.253256,655.580073 613.513866,634.577892 C626.173169,592.590102 637.548314,565.755363 637.548314,565.755363 C637.548314,565.755363 628.026221,593.357834 618.319099,635.864811 C613.535959,657.110015 608.71968,682.10827 606.079564,709.006526 C605.298023,717.628328 604.684942,726.548387 604.469535,735.548532 C606.192791,736.54548 631.508634,741.066265 646.150785,748.108416 C675.689157,762.319753 707.14686,784.260887 731.327674,790.411032 C736.950349,784.595044 741.614738,778.92266 745.483779,773.71423 C754.533634,760.687631 762.224767,742.684578 767.366919,728.909578 C784.298459,679.88516 794.058052,627.455654 795.209651,572.863794 L674.686686,519.92891 Z" id="Fill-45" fill="#FFFCCC"></path>
                <path d="M401.881483,804.287384 C401.881483,804.287384 402.718256,702.035349 396.85532,671.190727 C390.995145,640.343343 338.234244,584.931279 338.234244,584.931279 L209.141948,577.933314 C213.886424,589.697849 221.41186,609.410349 229.428866,634.577064 C236.042965,655.579244 242.993983,680.381424 247.829593,707.660785 C252.300669,734.887674 255.904593,764.881715 248.619419,795.538547 C246.368692,804.602209 243.695436,813.997267 237.995436,822.356715 C237.995436,822.356715 390.91782,812.859477 401.881483,804.287384" id="Fill-47" fill="#754C29"></path>
                <path d="M374.88298,589.20407 C374.88298,589.20407 387.951003,632.279942 382.143299,646.79782 C376.335596,661.318459 383.629055,700.113808 383.629055,700.113808 C383.629055,700.113808 385.081672,711.654651 379.257398,711.171366 C373.430363,710.688081 374.88298,685.071221 374.88298,685.071221 C374.88298,685.071221 375.283416,642.406831 379.257398,635.665698 C383.228619,628.930087 370.525131,589.20407 370.525131,589.20407 L374.88298,589.20407 Z" id="Fill-49" fill="#F4EFB3"></path>
                <path d="M240.842674,735.548808 C240.842674,735.548808 248.18032,724.623808 239.116657,702.65782 C234.449506,691.351715 198.667093,709.266395 155.87843,730.448081 C120.772616,747.827006 84.3522674,759.376134 91.2894767,767.15564 C105.583663,783.195174 96.52,789.527587 112.556773,791.270174 C120.438459,792.126279 154.945,777.111308 181.17218,762.096337 C205.14311,748.373808 240.842674,735.548808 240.842674,735.548808" id="Fill-51" fill="#F4EFB3"></path>
                <path d="M367.679549,589.20407 C367.679549,589.20407 376.456003,618.134884 372.556584,627.886192 C368.654404,637.6375 373.553532,663.693459 373.553532,663.693459 C373.553532,663.693459 374.528387,671.442587 370.617922,671.116715 C366.704695,670.793605 367.679549,653.588663 367.679549,653.588663 C367.679549,653.588663 367.950189,624.934012 370.617922,620.410465 C373.285654,615.881395 364.752224,589.20407 364.752224,589.20407 L367.679549,589.20407 Z" id="Fill-53" fill="#F4EFB3"></path>
                <path d="M604.470087,735.548808 C604.470087,735.548808 597.132442,724.623808 606.196105,702.65782 C610.863256,691.351715 646.645669,709.266395 689.434331,730.448081 C724.540145,747.827006 760.960494,759.376134 754.023285,767.15564 C739.729099,783.195174 748.792762,789.527587 732.755988,791.270174 C724.874302,792.126279 690.367762,777.111308 664.13782,762.096337 C640.169651,748.373808 604.470087,735.548808 604.470087,735.548808" id="Fill-55" fill="#F4EFB3"></path>
                <path d="M442.54673,804.287384 C442.54673,804.287384 441.709956,702.035349 447.572892,671.190727 C453.433067,640.343343 506.19673,584.931279 506.19673,584.931279 L635.286265,577.933314 C630.541788,589.697849 623.016352,609.410349 614.999346,634.577064 C608.385247,655.579244 601.436991,680.381424 596.598619,707.660785 C592.127544,734.887674 588.523619,764.881715 595.808794,795.538547 C598.05952,804.602209 600.732776,813.997267 606.432776,822.356715 C606.432776,822.356715 453.510392,812.859477 442.54673,804.287384" id="Fill-57" fill="#754C29"></path>
                <path d="M470.430058,589.20407 C470.430058,589.20407 457.362035,632.279942 463.169738,646.79782 C468.977442,661.318459 461.681221,700.113808 461.681221,700.113808 C461.681221,700.113808 460.228605,711.654651 466.05564,711.171366 C471.879913,710.688081 470.430058,685.071221 470.430058,685.071221 C470.430058,685.071221 470.02686,642.406831 466.05564,635.665698 C462.084419,628.930087 474.785145,589.20407 474.785145,589.20407 L470.430058,589.20407 Z" id="Fill-59" fill="#F4EFB3"></path>
                <path d="M477.859942,589.20407 C477.859942,589.20407 486.636395,618.134884 482.736977,627.886192 C478.834797,637.6375 483.733924,663.693459 483.733924,663.693459 C483.733924,663.693459 484.708779,671.442587 480.795552,671.116715 C476.885087,670.793605 477.859942,653.588663 477.859942,653.588663 C477.859942,653.588663 478.130581,624.934012 480.795552,620.410465 C483.466047,615.881395 474.932616,589.20407 474.932616,589.20407 L477.859942,589.20407 Z" id="Fill-61" fill="#F4EFB3"></path>
                <path d="M422.089419,601.501875 C422.089419,601.501875 747.46718,560.665683 797.554826,518.423823 L823.400901,738.845916 C823.400901,738.845916 744.49843,562.772805 422.089419,601.501875" id="Fill-63" fill-opacity="0.1" fill="#000000"></path>
                <path d="M422.468314,601.501875 C422.468314,601.501875 97.8444767,560.665683 47.7568314,518.423823 L21.9107558,738.845916 C21.9107558,738.845916 100.056541,562.772805 422.468314,601.501875" id="Fill-65" fill-opacity="0.1" fill="#000000"></path>
                <path d="M422.468314,601.501875 C422.468314,601.501875 743.692587,543.206672 793.197529,507.377311 L818.742587,694.342282 C818.742587,694.342282 741.129797,568.649549 422.468314,601.501875" id="Fill-67" fill="#27664A"></path>
                <path d="M422.468314,601.501875 C422.468314,601.501875 762.013227,537.285741 813.304942,553.449549 C813.304942,553.449549 824.696657,525.416265 804.865407,498.205945 C785.03968,470.995625 422.468314,601.501875 422.468314,601.501875" id="Fill-69" fill="#144C34"></path>
                <path d="M422.843343,601.501875 C422.843343,601.501875 101.61907,543.206672 52.1141279,507.377311 L26.5690698,694.342282 C26.5690698,694.342282 104.18186,568.649549 422.843343,601.501875" id="Fill-71" fill="#27664A"></path>
                <path d="M422.843343,601.501875 C422.843343,601.501875 83.3011919,537.285741 32.0067151,553.449549 C32.0067151,553.449549 20.615,525.416265 40.44625,498.205945 C60.2747384,470.995625 422.843343,601.501875 422.843343,601.501875" id="Fill-73" fill="#144C34"></path>
                <path d="M453.725523,590.970683 C453.725523,590.970683 792.400523,550.918794 813.306047,553.448445 C823.214767,546.403532 584.991221,543.876642 453.725523,590.970683" id="Fill-75" fill-opacity="0.5" fill="#123525"></path>
                <path d="M391.8275,590.970683 C391.8275,590.970683 53.1525,550.918794 32.2469767,553.448445 C22.3382558,546.403532 260.561802,543.876642 391.8275,590.970683" id="Fill-77" fill-opacity="0.5" fill="#123525"></path>
                <path d="M445.624012,578.27907 C433.865,575.931686 417.930407,586.260174 417.930407,586.260174 C392.136802,586.729651 381.827645,598.65436 381.827645,598.65436 C381.827645,598.65436 392.136802,610.57907 417.930407,611.048547 C417.930407,611.048547 433.865,621.371512 445.624012,619.02689 C445.624012,619.02689 455.864128,608.314535 454.347994,598.65436 C455.864128,588.991424 445.624012,578.27907 445.624012,578.27907" id="Fill-79" fill="#B7A839"></path>
            </g>
        </g>
    </g>
</svg>