<?xml version="1.0" encoding="UTF-8"?>
<svg width="1134px" height="752px" viewBox="0 0 1134 752" version="1.1" xmlns="http://www.w3.org/2000/svg" xmlns:xlink="http://www.w3.org/1999/xlink">
    <!-- Generator: Sketch 54.1 (76490) - https://sketchapp.com -->
    <title>071</title>
    <desc>Created with Sketch.</desc>
    <defs>
        <path d="M108.448464,514.03462 C-14.1263063,372.382325 0.54758478,175.2774 0.54758478,175.2774 C0.54758478,175.2774 17.5193403,61.179449 50.1935943,32.234202 C79.286692,6.46140553 135.094021,-2.28142588 205.536992,3.58204502 C275.979963,9.44551593 296.672599,23.9295372 343.487796,45.1170422 C374.857721,59.3143646 420.405006,117.277752 420.405006,117.277752 C420.405006,117.277752 545.452679,197.371791 589.13064,331.36215 C632.8086,465.352509 471.6,612.756611 471.6,612.756611 C471.6,612.756611 231.023235,655.686915 108.448464,514.03462 Z" id="path-1"></path>
        <polygon id="path-3" points="482.35968 255.98008 482.35968 510.841876 0 510.841876 0 255.98008 0 1.11828517 482.35968 1.11828517"></polygon>
    </defs>
    <g id="Bearpots" stroke="none" stroke-width="1" fill="none" fill-rule="evenodd">
        <g id="071" transform="translate(-57.000000, -224.000000)">
            <g transform="translate(57.000000, 224.000000)">
                <g id="Mascot7_EPS">
                    <g id="1egg" transform="translate(0.000000, 35.980861)">
                        <mask id="mask-2" fill="white">
                            <use xlink:href="#path-1"></use>
                        </mask>
                        <use id="Path-8" fill="#6053AF" xlink:href="#path-1"></use>
                        <g id="Group" mask="url(#mask-2)" stroke="#312691" stroke-width="21.6">
                            <g transform="translate(-54.000000, -21.588517)" id="Path-24">
                                <path d="M39.6,183.410379 C39.6,183.410379 116.485969,142.396028 149.095349,112.858136 C182.655975,82.4585969 238.110018,3.59808612 238.110018,3.59808612"></path>
                                <path d="M1.83516312,290.516679 C1.83516312,290.516679 146.383477,239.725858 218.018182,168.422127 C289.652886,97.1183967 331.672824,0.13431195 331.672824,0.13431195"></path>
                                <path d="M61.909725,358.72133 C61.909725,358.72133 211.508314,302.917862 283.143019,231.614131 C354.777723,160.310401 396.797661,63.3263159 396.797661,63.3263159"></path>
                                <path d="M78.0085121,447.041585 C78.0085121,447.041585 268.398589,369.122646 340.033294,297.818916 C411.667998,226.515185 473.554282,107.864588 473.554282,107.864588"></path>
                                <path d="M122.4,526.277476 C122.4,526.277476 312.790077,448.358537 384.424782,377.054806 C456.059486,305.751076 517.94577,187.100478 517.94577,187.100478"></path>
                                <path d="M180,623.425801 C180,623.425801 370.390077,545.506862 442.024782,474.203132 C513.659486,402.899401 575.54577,284.248804 575.54577,284.248804"></path>
                                <path d="M248.4,713.377954 C248.4,713.377954 438.790077,635.459015 510.424782,564.155285 C582.059486,492.851554 643.94577,374.200957 643.94577,374.200957"></path>
                            </g>
                        </g>
                    </g>
                    <g id="Group-3" transform="translate(349.200000, 93.550239)">
                        <mask id="mask-4" fill="white">
                            <use xlink:href="#path-3"></use>
                        </mask>
                        <g id="Clip-2"></g>
                        <path d="M454.79232,134.238836 C450.85824,124.653535 446.67936,115.196325 441.99792,106.025523 C458.58672,96.2041876 469.74384,78.1849722 469.74384,57.5175656 C469.74384,26.3696536 444.48048,1.11828517 413.31456,1.11828517 L69.09408,1.11828517 C37.9296,1.11828517 12.6648,26.3696536 12.6648,57.5175656 C12.6648,78.1691407 23.80464,96.1768421 40.37328,106.002496 C35.69184,115.170419 31.5144,124.62475 27.58032,134.205734 C12.72384,170.399602 3.29184,209.372632 0.45072,250.197956 C0.23472,255.053933 0,259.908471 0,264.819139 C0,300.100532 5.74128,334.021849 16.19424,365.805902 C19.31184,374.752184 25.30656,390.159189 32.65056,400.446836 C33.45264,401.503234 34.21008,402.533726 35.12304,403.643376 C38.70432,407.956762 42.65424,412.144934 47.40624,416.302882 C52.20144,420.46227 57.75552,424.620218 64.07856,428.097409 C70.32672,431.555889 77.61888,434.349443 84.81312,435.274871 C92.34144,436.354297 100.28592,435.063303 106.34976,430.810366 C112.53168,426.661053 116.95104,419.398676 119.50992,411.190722 C124.61328,394.558928 133.88256,394.366071 129.42432,413.951173 C127.13472,423.572456 122.35968,433.721937 113.66928,440.579889 C104.96736,447.555858 94.0896,449.711832 84.32064,449.949305 C74.03472,450.019828 64.90368,447.673876 56.62368,444.523391 C55.61424,444.133359 54.75312,443.632505 53.77392,443.218006 C68.91552,466.041386 86.94864,486.736138 107.2224,505.007219 C118.03824,510.951257 135.6624,515.340922 159.0048,503.226886 C199.7064,482.104681 240.408,479.75729 240.408,479.75729 C240.408,479.75729 281.1096,482.104681 321.8112,503.226886 C349.15968,517.419177 368.65872,508.970871 378.54,501.898473 C397.36368,484.434802 414.19728,464.872727 428.46048,443.409424 C427.54608,443.7937 426.74688,444.261451 425.808,444.624138 C417.52656,447.776061 408.39696,450.122013 398.11104,450.051491 C388.34208,449.814017 377.46432,447.656605 368.7624,440.682075 C360.07056,433.824122 355.29696,423.674641 353.00736,414.05192 C348.54768,394.468256 357.8184,394.661114 362.92176,411.291468 C365.4792,419.500861 369.9,426.761799 376.08048,430.911112 C382.14576,435.165489 390.09024,436.456482 397.61856,435.377056 C404.8128,434.450189 412.10496,431.656635 418.35312,428.198155 C424.67616,424.722404 430.23024,420.564456 435.02544,416.403629 C441.48096,410.756073 446.36688,405.10276 450.11952,400.111495 C455.97456,391.788402 460.94976,380.288919 464.27328,371.488 C475.95744,338.086247 482.35968,302.207571 482.35968,264.819139 C482.35968,259.90991 482.12496,255.056811 481.90896,250.200834 C479.06784,209.385585 469.6416,170.425508 454.79232,134.238836 Z" id="Fill-1" fill="#FFC600" mask="url(#mask-4)"></path>
                    </g>
                    <path d="M418.29408,122.773895 C402.65856,122.773895 389.98512,135.442036 389.98512,151.067805 C389.98512,161.202894 395.3592,170.025401 403.3728,175.022423 C413.16912,158.941856 424.1016,143.634159 436.12704,129.259085 C431.24688,125.266649 425.09232,122.773895 418.29408,122.773895" id="Fill-4" fill="#26292D"></path>
                    <path d="M762.51456,122.773895 C755.70336,122.773895 749.53872,125.276723 744.65424,129.282113 C756.6768,143.657187 767.60496,158.963445 777.3984,175.042572 C785.43216,170.049868 790.82496,161.218725 790.82496,151.067805 C790.82496,135.442036 778.15008,122.773895 762.51456,122.773895" id="Fill-5" fill="#26292D"></path>
                    <path d="M659.62224,290.735433 C659.62224,329.383196 628.27632,360.713891 589.608,360.713891 C550.93968,360.713891 519.59376,329.383196 519.59376,290.735433 C519.59376,252.087671 550.93968,220.758415 589.608,220.758415 C628.27632,220.758415 659.62224,252.087671 659.62224,290.735433" id="Fill-6" fill="#FFFFFE"></path>
                    <path d="M519.81696,286.304031 C519.7248,287.776367 519.59232,289.240069 519.59232,290.735433 C519.59232,329.383196 550.93968,360.713891 589.608,360.713891 C628.27632,360.713891 659.62224,329.383196 659.62224,290.735433 C659.62224,289.240069 659.4912,287.776367 659.39904,286.304031 L519.81696,286.304031" id="Fill-7" fill="#26292D"></path>
                    <path d="M594.85536,360.447633 C619.03872,358.650029 639.80208,344.634764 650.92608,324.496995 C641.25504,316.740961 629.06832,312.008758 615.69648,312.008758 C606.47616,312.008758 597.89808,314.413719 590.19984,318.314044 C582.50304,314.413719 573.92352,312.008758 564.7032,312.008758 C550.96992,312.008758 538.4592,316.972678 528.6528,325.092838 C540.59472,346.210725 563.16528,360.512398 589.1256,360.689424 C591.05376,360.679349 592.95024,360.54694 594.85536,360.447633" id="Fill-8" fill="#DC3E5D"></path>
                    <path d="M585.0648,286.440758 C586.57392,286.465225 588.07296,286.499767 589.60512,286.499767 C591.14016,286.499767 592.64064,286.465225 594.1512,286.440758 L594.1512,263.476333 L585.0648,263.476333 L585.0648,286.440758" id="Fill-9" fill="#26292D"></path>
                    <path d="M625.93488,246.471778 C625.93488,245.506052 625.75056,244.590699 625.48848,243.708448 C625.37472,243.275238 625.28256,243.020494 625.28256,243.020494 L625.27536,243.020494 C624.94848,242.158392 624.50352,241.363935 623.9592,240.638561 L623.96352,240.629925 C623.96352,240.629925 619.84944,232.154274 590.02272,232.072237 L590.02272,232.065041 L589.81536,232.069359 L589.608,232.065041 L589.608,232.072237 C572.25456,232.119732 563.62464,234.99964 559.43136,237.410358 C556.8984,238.426457 554.90976,240.465853 553.94064,243.020494 L553.92624,243.020494 C553.92624,243.020494 553.81824,243.319855 553.69152,243.822147 C553.45104,244.669856 553.28256,245.547789 553.28256,246.471778 L553.30704,246.716448 C553.12848,251.11187 554.57136,258.853512 564.54624,266.796647 C574.36128,274.610251 581.89824,277.162013 586.04256,278.006844 C586.35792,278.078806 586.67904,278.121983 587.0016,278.175234 C588.63168,278.438614 589.6008,278.437175 589.6008,278.437175 L589.608,278.437175 C589.608,278.437175 590.5728,278.437175 592.19712,278.176674 C592.52832,278.121983 592.85808,278.077367 593.18208,278.003966 C597.33072,277.154817 604.86192,274.598737 614.66256,266.796647 C624.59712,258.886614 626.06736,251.173757 625.90464,246.7697 L625.93488,246.471778" id="Fill-10" fill="#26292D"></path>
                    <path d="M476.95248,79.6558699 L702.76176,79.6558699 C675.72432,61.0710354 643.96656,48.8634488 609.55776,45.4855656 L623.38464,7.86541627 C623.38464,7.86541627 614.58336,0.535395215 589.85712,0.535395215 C565.13232,0.535395215 556.33104,7.86541627 556.33104,7.86541627 L570.15792,45.4841263 C535.74912,48.8634488 503.99136,61.0710354 476.95248,79.6558699" id="Fill-11" fill="#FFC600"></path>
                    <path d="M417.39408,101.517841 C417.39408,101.517841 413.18064,103.131223 407.68704,106.425631 C404.91936,108.021742 401.83488,110.032352 398.75184,112.407089 C395.64576,114.748723 392.59152,117.532203 389.78352,120.533007 C386.88912,123.471923 384.46128,126.80663 382.13424,129.955675 C380.04624,133.257278 378.01584,136.351633 376.53984,139.212831 C374.87808,141.986235 373.72032,144.457401 372.86784,146.1888 C371.99232,147.914442 371.39184,148.897439 371.39184,148.897439 C371.39184,148.897439 371.40192,147.782033 371.59056,145.833309 C371.8872,143.920567 371.87424,141.014752 372.89808,137.783671 C373.61376,134.447525 375.10848,130.745814 376.98768,126.871395 C379.02384,123.074695 381.68064,119.272237 384.82704,115.865569 C391.22352,109.114121 399.56256,104.499935 406.19232,102.830423 C412.82496,101.021305 417.39408,101.517841 417.39408,101.517841" id="Fill-14" fill="#FFFFFE"></path>
                    <path d="M529.85088,198.222882 L529.85808,198.222882 L529.84512,198.201294 L529.74288,198.031464 C529.64928,197.877466 529.49952,197.641432 529.26192,197.291698 C528.82992,196.549053 528.33024,195.845267 527.69376,195.206247 C523.03824,189.465141 510.4224,177.500785 486.03744,177.500785 C460.64448,177.500785 447.92064,191.47719 443.71008,197.307529 C443.11968,197.996922 442.5984,198.738128 442.2168,199.551296 C442.11024,199.7312 442.0512,199.839143 442.0512,199.839143 C441.62928,200.984773 441.31248,202.179338 441.2952,203.432911 C441.2808,204.516655 441.3744,205.613351 441.70128,206.70573 C442.3248,208.802695 443.53296,210.561439 445.08384,211.881217 C445.69584,212.429566 450.51984,216.167257 462.9456,210.10952 L462.8952,210.226098 C465.57648,208.899123 468.35424,207.707437 471.32208,206.825187 C486.30096,202.366438 501.69168,204.683606 514.25568,211.9503 C516.91536,213.488842 520.0272,214.048704 522.972,213.172211 C529.71552,211.165918 532.34352,203.802794 529.85088,198.222882" id="Fill-15" fill="#26292D"></path>
                    <path d="M736.99632,198.222882 L737.00352,198.222882 L736.99056,198.201294 L736.88832,198.031464 C736.79472,197.877466 736.64496,197.641432 736.40736,197.291698 C735.97536,196.549053 735.47568,195.845267 734.8392,195.206247 C730.18368,189.465141 717.56784,177.500785 693.18288,177.500785 C667.78992,177.500785 655.06608,191.47719 650.85552,197.307529 C650.26512,197.996922 649.74384,198.738128 649.36224,199.551296 C649.25568,199.7312 649.19664,199.839143 649.19664,199.839143 C648.77472,200.984773 648.45792,202.179338 648.44208,203.432911 C648.42624,204.516655 648.51984,205.613351 648.84528,206.70573 C649.47024,208.802695 650.6784,210.561439 652.22928,211.881217 C652.84128,212.429566 657.66672,216.167257 670.09104,210.10952 L670.04064,210.226098 C672.72336,208.899123 675.50112,207.707437 678.46752,206.825187 C693.4464,202.366438 708.83712,204.683606 721.40112,211.9503 C724.0608,213.488842 727.17264,214.048704 730.11744,213.172211 C736.86096,211.165918 739.48896,203.802794 736.99632,198.222882" id="Fill-16" fill="#26292D"></path>
                </g>
                <path d="M593.550672,676.409112 C319.752533,676.409112 335.75445,379.998695 335.75445,379.998695 C335.75445,379.998695 394.22253,401.485912 423.239659,419.004532 C443.10438,430.997535 482.399999,468.533565 482.399999,468.533565 L545.54843,369.475499 L613.776848,420.005224 L648.331525,385.507814 L712.662541,471.916543 C712.662541,471.916543 764.77459,428.628981 795.295911,404.99482 C808.34148,394.892993 843.499823,379.737029 843.499823,379.737029 C843.499823,379.737029 867.34881,676.409112 593.550672,676.409112 Z" id="Path-9" fill="#9A92D0"></path>
                <path d="M727.2,614.014836 C727.2,614.014836 762.805581,590.088598 775.228162,572.068167 C784.839953,558.12512 793.303114,518.124402 793.303114,518.124402 L727.2,614.014836 Z" id="Path-76" fill="#FFFFFF"></path>
                <path d="M262.564713,698.638496 C147.126546,631.026261 186.460928,557.703349 186.460928,557.703349 L246.842281,615.499595 L343.5508,608.897846 L397.917722,681.075085 L460.849901,672.9776 L487.822857,702.450326 L472.765551,749.242478 C472.765551,749.242478 378.002879,766.250731 262.564713,698.638496 Z" id="Path-10" fill="#9A92D0"></path>
                <path d="M1022.02342,674.871986 C980.46749,695.605808 889.238917,704.857432 889.238917,704.857432 L913.894548,635.155407 L889.2,591.025878 L924.349045,545.764822 L925.290126,471.349282 L977.102684,508.325443 L1034.37776,506.751914 L1075.88795,582.111571 L1133.43898,583.016792 C1133.43898,583.016792 1061.86751,654.992261 1022.02342,674.871986 Z" id="Path-11" fill="#9A92D0"></path>
            </g>
        </g>
    </g>
</svg>