<?xml version="1.0" encoding="UTF-8"?>
<svg width="830px" height="1047px" viewBox="0 0 830 1047" version="1.1" xmlns="http://www.w3.org/2000/svg" xmlns:xlink="http://www.w3.org/1999/xlink">
    <!-- Generator: Sketch 54.1 (76490) - https://sketchapp.com -->
    <title>043</title>
    <desc>Created with Sketch.</desc>
    <defs>
        <polygon id="path-1" points="722.351848 378.429186 722.351848 756.588736 0 756.588736 0 378.429186 0 0.269635579 722.351848 0.269635579 722.351848 378.429186"></polygon>
        <path d="M21.6626963,226.167353 C19.4413935,219.463019 3.17786888,144.169769 1.33301043,115.987498 C-1.42196553,73.9021663 10.6071811,0.753036785 10.6071811,0.753036785 C10.6071811,0.753036785 248.44835,149.560907 365.366216,149.072314 C479.555822,148.595122 715.608103,0.753036785 715.608103,0.753036785 C715.608103,0.753036785 721.703428,21.5879737 724.958114,48.7139688 C728.835718,81.0316397 729.850428,122.355427 727.894005,149.072314 C724.921824,189.660387 701.313601,256.515358 701.313601,256.515358 L365.36623,369.454714 L31.3204185,256.515358 C31.3204185,256.515358 27.8123733,244.728303 21.6626963,226.167353 Z" id="path-3"></path>
    </defs>
    <g id="Bearpots" stroke="none" stroke-width="1" fill="none" fill-rule="evenodd">
        <g id="043" transform="translate(-196.000000, -57.000000)">
            <g transform="translate(177.000000, 55.000000)">
                <g id="Group" transform="translate(62.622566, 150.896863)">
                    <g id="Mascot_EPS">
                        <g id="Group-3" transform="translate(0.000000, 141.341231)">
                            <mask id="mask-2" fill="white">
                                <use xlink:href="#path-1"></use>
                            </mask>
                            <g id="Clip-2"></g>
                            <path d="M721.677737,369.857384 C717.424476,309.295928 703.307687,251.48519 681.068639,197.792918 C675.179507,183.569642 668.919286,169.537719 661.908101,155.931995 C686.751366,141.358627 703.461393,114.621215 703.461393,83.9545166 C703.461393,37.7359341 665.627784,0.269635579 618.956086,0.269635579 L103.470419,0.269635579 C56.798721,0.269635579 18.9673078,37.7359341 18.9673078,83.9545166 C18.9673078,114.597295 35.6487894,141.317311 60.461313,155.897203 C53.4501282,169.498578 47.1921023,183.526152 41.3029706,197.74508 C19.0551398,251.448224 4.92956773,309.274183 0.676305952,369.85086 C0.351327767,377.057089 0,384.258968 0,391.545652 C0,443.896269 8.5987471,494.228969 24.2525949,541.389101 C28.9208626,554.664305 37.8972871,577.524618 48.896042,592.789471 C50.0971438,594.357271 51.2301759,595.885931 52.5981584,597.532013 C52.7628433,597.723367 52.9209407,597.936466 53.0834298,598.123471 C57.9624942,603.931509 63.8757797,610.148348 70.9923628,616.315175 C78.1748198,622.488525 86.4925047,628.657526 95.960788,633.817568 C105.317086,638.947168 116.236792,643.093902 127.011575,644.468174 C138.284805,646.068591 150.181642,644.152874 159.263464,637.842532 C168.520951,631.684403 175.139088,620.912027 178.970756,608.730587 C186.614331,584.052408 185.766753,556.092938 183.426032,530.80373 C180.867926,505.307947 176.201854,481.614808 171.568719,461.483467 C162.168506,421.18817 152.94176,395.024821 152.94176,395.024821 C152.94176,395.024821 163.962473,420.461893 176.223812,460.25706 C182.286412,480.164429 188.658619,503.672738 193.094133,529.529485 C197.191493,555.338394 200.496169,583.767551 193.818746,612.827308 C190.388909,627.102773 183.239389,642.163224 170.222695,652.339793 C157.192826,662.688146 140.902197,665.888981 126.271591,666.241247 C110.87026,666.345622 97.1970226,662.866453 84.7951524,658.189146 C83.284443,657.610734 81.9955093,656.867061 80.5287159,656.253858 C103.204727,690.117042 130.208658,720.825056 160.569964,747.936478 C176.76837,756.753996 203.159673,763.26874 238.116786,745.294484 C299.067762,713.953697 360.020934,710.47018 360.020934,710.47018 C360.020934,710.47018 420.97191,713.953697 481.925082,745.294484 C522.881116,766.352153 552.080845,753.816273 566.878332,743.322231 C595.067993,717.411121 620.277956,688.383981 641.636489,656.53654 C640.266311,657.106254 639.0696,657.802088 637.664289,658.339185 C625.262419,663.016492 611.589182,666.497835 596.187851,666.391286 C581.557245,666.03902 565.266615,662.838185 552.236747,652.489832 C539.220053,642.313264 532.072729,627.254986 528.642891,612.977348 C521.965468,583.917591 525.267949,555.488433 529.367505,529.681699 C533.800822,503.824951 540.17303,480.316643 546.235629,460.4071 C558.499164,420.611932 569.517681,395.17486 569.517681,395.17486 C569.517681,395.17486 560.293132,421.338209 550.890722,461.633507 C546.259783,481.764847 541.593711,505.457986 539.03341,530.95377 C536.694885,556.242978 535.847306,584.204622 543.488685,608.880626 C547.320354,621.062066 553.938491,631.836617 563.195977,637.992571 C572.279996,644.305088 584.174637,646.218631 595.450062,644.618213 C606.22265,643.243941 617.142356,639.099382 626.500849,633.967608 C635.969133,628.807565 644.286818,622.638564 651.467079,616.465214 C661.13518,608.086941 668.451581,599.697795 674.072825,592.291515 C682.840649,579.94264 690.290993,562.879492 695.268868,549.819562 C712.764991,500.260978 722.351848,447.023172 722.351848,391.545652 C722.351848,384.261142 722.002716,377.061438 721.677737,369.857384" id="Fill-1" fill="#FFC600" mask="url(#mask-2)"></path>
                        </g>
                        <path d="M285.401112,285.076565 C285.401112,327.250613 250.876571,361.442144 208.286863,361.442144 C165.69935,361.442144 131.172614,327.250613 131.172614,285.076565 C131.172614,242.900341 165.69935,208.70881 208.286863,208.70881 C250.876571,208.70881 285.401112,242.900341 285.401112,285.076565" id="Fill-4" fill="#FFFFFE"></path>
                        <path d="M242.604998,285.076565 C242.604998,303.844506 227.240996,319.059345 208.286863,319.059345 C189.334925,319.059345 173.970923,303.844506 173.970923,285.076565 C173.970923,266.306449 189.334925,251.091609 208.286863,251.091609 C227.240996,251.091609 242.604998,266.306449 242.604998,285.076565" id="Fill-5" fill="#26292D"></path>
                        <path d="M103.470419,183.313053 C80.0566192,183.313053 61.0761365,202.109262 61.0761365,225.295747 C61.0761365,240.334454 69.125934,253.424827 81.1259731,260.839805 C95.7961032,236.979231 112.167977,214.266782 130.175721,192.937303 C122.868103,187.014019 113.650141,183.313053 103.470419,183.313053" id="Fill-6" fill="#26292D"></path>
                        <path d="M618.956086,183.313053 C608.754406,183.313053 599.523269,187.027066 592.209064,192.972095 C610.212416,214.2994 626.577702,237.011848 641.245637,260.868073 C653.274221,253.461793 661.350368,240.356199 661.350368,225.295747 C661.350368,202.109262 642.369886,183.313053 618.956086,183.313053" id="Fill-7" fill="#26292D"></path>
                        <path d="M203.511001,260.459271 C203.511001,270.764134 195.076939,279.116314 184.673245,279.116314 C174.267356,279.116314 165.833294,270.764134 165.833294,260.459271 C165.833294,250.156583 174.267356,241.804403 184.673245,241.804403 C195.076939,241.804403 203.511001,250.156583 203.511001,260.459271" id="Fill-8" fill="#FFFFFE"></path>
                        <path d="M591.179234,285.076565 C591.179234,327.250613 556.654694,361.442144 514.064985,361.442144 C471.475276,361.442144 436.950736,327.250613 436.950736,285.076565 C436.950736,242.900341 471.475276,208.70881 514.064985,208.70881 C556.654694,208.70881 591.179234,242.900341 591.179234,285.076565" id="Fill-9" fill="#FFFFFE"></path>
                        <path d="M548.380925,285.076565 C548.380925,303.844506 533.016922,319.059345 514.064985,319.059345 C495.110852,319.059345 479.746849,303.844506 479.746849,285.076565 C479.746849,266.306449 495.110852,251.091609 514.064985,251.091609 C533.016922,251.091609 548.380925,266.306449 548.380925,285.076565" id="Fill-10" fill="#26292D"></path>
                        <path d="M509.289123,260.459271 C509.289123,270.764134 500.852865,279.116314 490.449172,279.116314 C480.045478,279.116314 471.611416,270.764134 471.611416,260.459271 C471.611416,250.156583 480.045478,241.804403 490.449172,241.804403 C500.852865,241.804403 509.289123,250.156583 509.289123,260.459271" id="Fill-11" fill="#FFFFFE"></path>
                        <path d="M464.870314,432.534609 C464.870314,489.877833 417.928533,536.366052 360.020934,536.366052 C302.113335,536.366052 255.171553,489.877833 255.171553,432.534609 C255.171553,375.18921 302.113335,328.700992 360.020934,328.700992 C417.928533,328.700992 464.870314,375.18921 464.870314,432.534609" id="Fill-12" fill="#FFFFFE"></path>
                        <path d="M414.419647,375.83938 C414.419647,374.404222 414.145172,373.047347 413.75432,371.738309 C413.583048,371.096838 413.444712,370.718478 413.444712,370.718478 L413.433733,370.718478 C412.94407,369.437709 412.278743,368.259141 411.464102,367.182773 L411.468494,367.169726 C411.468494,367.169726 405.309279,354.594705 360.640149,354.475109 L360.640149,354.462062 C360.532555,354.462062 360.440331,354.468585 360.330541,354.468585 C360.222947,354.468585 360.128528,354.462062 360.020934,354.462062 L360.020934,354.475109 C334.031462,354.544692 321.109188,358.817546 314.829204,362.394567 C311.03706,363.901482 308.057361,366.928359 306.608134,370.718478 L306.586176,370.718478 C306.586176,370.718478 306.423687,371.162072 306.234848,371.907919 C305.874737,373.166943 305.620025,374.467282 305.620025,375.83938 C305.620025,375.963325 305.652962,376.078572 305.657353,376.200343 C305.391662,382.723785 307.552327,394.211565 322.490345,405.997249 C337.186825,417.591579 348.475425,421.375175 354.680752,422.62985 C355.152848,422.7364 355.635924,422.801634 356.116804,422.879916 C358.558532,423.271322 360.009955,423.269148 360.009955,423.269148 L360.020934,423.269148 C360.020934,423.269148 361.465769,423.269148 363.898714,422.88209 C364.392769,422.801634 364.889019,422.7364 365.374291,422.625501 C371.584009,421.366477 382.863826,417.574183 397.540543,405.997249 C412.417079,394.259404 414.619465,382.817287 414.375731,376.280799 C414.380123,376.13076 414.419647,375.991593 414.419647,375.83938" id="Fill-14" fill="#26292D"></path>
                        <path d="M191.315536,119.335488 L529.472903,119.335488 C488.982378,91.758727 441.425773,73.6453047 389.894773,68.6331272 L410.601153,12.8142134 C410.601153,12.8142134 397.42197,1.9374621 360.394219,1.9374621 C323.366469,1.9374621 310.187286,12.8142134 310.187286,12.8142134 L330.893666,68.6331272 C279.364862,73.6453047 231.806061,91.758727 191.315536,119.335488" id="Fill-15" fill="#FFC600"></path>
                        <path d="M56.9129025,699.536892 C56.9129025,699.536892 51.3092246,692.321966 45.1390307,680.120956 C38.9315082,667.976482 32.633958,650.813308 28.6134508,633.160875 C24.524874,615.510617 22.5793964,597.50157 22.1863485,583.978476 C21.8328249,570.437986 22.6869906,561.398671 22.6869906,561.398671 C22.6869906,561.398671 23.3589049,563.586198 24.2833361,567.419807 C25.1792219,571.242544 26.4615683,576.702664 28.0008231,583.256548 C30.9541721,596.338223 34.5091699,613.714496 38.5582225,630.910288 C42.4118489,648.156093 46.8846905,665.219241 50.5758279,678.033454 C52.4554315,684.463393 54.0210358,689.823488 55.1167393,693.574466 C56.3354075,697.331969 56.9129025,699.536892 56.9129025,699.536892" id="Fill-16" fill="#FFFFFE"></path>
                        <path d="M579.822564,590.497568 C579.822564,590.497568 579.666662,596.570892 578.713686,605.384062 C577.70801,614.188533 575.738379,625.698058 573.382287,637.094511 C570.92958,648.473567 568.132133,659.774342 565.60916,668.254816 C564.436604,672.503751 563.035684,676.011188 562.326441,678.51184 C561.496429,680.995097 560.87941,682.408509 560.87941,682.408509 C560.87941,682.408509 559.886909,676.409117 559.80786,667.439386 C559.777119,658.4827 560.96285,646.625258 563.397991,635.028754 C565.87046,623.436599 569.548423,612.133649 573.072679,603.911938 C576.647439,595.692402 579.822564,590.497568 579.822564,590.497568" id="Fill-17" fill="#FFFFFE"></path>
                        <path d="M102.122199,151.772214 C102.122199,151.772214 95.8136695,154.166317 87.5860124,159.056723 C83.4403447,161.424732 78.8247762,164.40812 74.2070119,167.932952 C69.5541147,171.405598 64.9802664,175.537111 60.7753121,179.990447 C56.4408058,184.35028 52.8045634,189.297223 49.3220269,193.970182 C46.193014,198.867112 43.1540288,203.459614 40.9428597,207.706375 C38.4550199,211.820492 36.7203391,215.486666 35.4445801,218.056902 C34.1314926,220.616265 33.233411,222.075342 33.233411,222.075342 C33.233411,222.075342 33.2487816,220.420562 33.5298438,217.528503 C33.9755909,214.690806 33.9558287,210.378811 35.4884961,205.586256 C36.5600458,200.63279 38.7997603,195.142227 41.6125782,189.395075 C44.6625424,183.760996 48.6413294,178.118219 53.3535131,173.062552 C62.9315863,163.04472 75.4190926,156.199456 85.3484937,153.722723 C95.2822863,151.037239 102.122199,151.772214 102.122199,151.772214" id="Fill-18" fill="#FFFFFE"></path>
                    </g>
                    <path d="M341.810214,495.960088 C328.356803,498.266636 324.539025,493.16589 324.539025,493.16589 C324.539025,493.16589 344.297121,486.979902 350.651544,483.986507 C356.510093,481.227141 362.121459,477.627447 362.9655,477.081016 C363.809541,477.627447 369.420906,481.227141 375.279455,483.986507 C381.635385,486.979902 401.391974,493.16589 401.391974,493.16589 C401.391974,493.16589 397.488284,498.514815 384.122292,495.960088 C365.850311,492.468157 363.051411,492.317943 341.810214,495.960088 Z" id="Path" fill="#3A3E44"></path>
                </g>
                <g id="Group-6" transform="translate(57.128895, 583.598710)">
                    <g id="Group-5" transform="translate(30.215190, 253.089759)" stroke="#1F2228" stroke-width="3.4409136">
                        <g id="Group-4" transform="translate(0.000000, 2.721395)">
                            <path d="M12.2415308,3.17542087 L12.2995338,41.1415419" id="Path-14943"></path>
                            <path d="M3.45165729,0.998304631 L3.50966024,38.9644256" id="Path-14943"></path>
                            <path d="M21.0314044,5.35253711 L21.0894073,43.3186581" id="Path-14943"></path>
                            <path d="M29.8212779,9.70676959 L29.8792809,47.6728906" id="Path-14943"></path>
                            <path d="M46.8516578,14.1512553 L46.9096608,52.1173763" id="Path-14943"></path>
                            <path d="M38.6111515,11.9741391 L38.6691544,49.9402601" id="Path-14943"></path>
                            <path d="M55.0921641,16.8726506 L55.1501671,54.8387716" id="Path-14943"></path>
                            <path d="M63.3326705,20.1383249 L63.3906734,58.1044459" id="Path-14943"></path>
                            <path d="M81.5197874,27.2139526 L81.5777904,65.1800736" id="Path-14943"></path>
                            <path d="M73.2792811,24.4925573 L73.337284,62.4586783" id="Path-14943"></path>
                            <path d="M89.7602937,29.9353479 L89.8182967,67.9014689" id="Path-14943"></path>
                            <path d="M100.747636,32.6567431 L100.805638,70.6228641" id="Path-14943"></path>
                            <path d="M117.228648,38.0995336 L117.286651,76.0656546" id="Path-14943"></path>
                            <path d="M108.988142,35.3781384 L109.046145,73.3442594" id="Path-14943"></path>
                            <path d="M125.469154,40.8209289 L125.527157,78.7870499" id="Path-14943"></path>
                            <path d="M133.709661,43.5423241 L133.767664,81.5084452" id="Path-14943"></path>
                            <path d="M151.896778,48.9851147 L151.954781,86.9512357" id="Path-14943"></path>
                            <path d="M143.656271,46.2637194 L143.714274,84.2298404" id="Path-14943"></path>
                            <path d="M160.137284,51.7065099 L160.195287,89.6726309" id="Path-14943"></path>
                            <path d="M171.124626,54.4279052 L171.182629,92.3940262" id="Path-14943"></path>
                            <path d="M187.605639,59.8706957 L187.663641,97.8368167" id="Path-14943"></path>
                            <path d="M179.365132,57.1493004 L179.423135,95.1154215" id="Path-14943"></path>
                            <path d="M195.846145,62.592091 L195.904148,100.558212" id="Path-14943"></path>
                            <path d="M204.086651,65.3134862 L204.144654,103.279607" id="Path-14943"></path>
                            <path d="M222.273768,74.021951 L222.331771,111.988072" id="Path-14943"></path>
                            <path d="M214.033262,71.3005558 L214.091265,109.266677" id="Path-14943"></path>
                            <path d="M230.514274,76.7433463 L230.572277,114.709467" id="Path-14943"></path>
                            <path d="M241.501616,79.4647415 L241.559619,117.430863" id="Path-14943"></path>
                            <path d="M257.982629,84.9075321 L258.040632,122.873653" id="Path-14943"></path>
                            <path d="M249.742123,82.1861368 L249.800126,120.152258" id="Path-14943"></path>
                            <path d="M266.223135,87.6289273 L266.281138,125.595048" id="Path-14943"></path>
                            <path d="M274.463642,90.3503226 L274.521644,128.316444" id="Path-14943"></path>
                            <path d="M283.529195,94.7045551 L283.587198,132.670676" id="Path-14943"></path>
                            <path d="M292.319068,97.4259503 L292.377071,135.392071" id="Path-14943"></path>
                            <path d="M310.997549,102.868741 L311.055552,140.834862" id="Path-14943"></path>
                            <path d="M300.559574,100.147346 L300.617577,138.113467" id="Path-14943"></path>
                            <path d="M319.238055,105.590136 L319.296058,143.556257" id="Path-14943"></path>
                            <path d="M334.070967,108.311531 L334.12897,146.277652" id="Path-14943"></path>
                            <path d="M327.478562,108.311531 L327.536565,146.277652" id="Path-14943"></path>
                        </g>
                        <g id="Group-4" transform="translate(502.396202, 74.838370) scale(-1, 1) translate(-502.396202, -74.838370) translate(330.718987, 0.000000)">
                            <path d="M17.7352017,5.89681613 L17.7932047,43.8629371" id="Path-14943"></path>
                            <path d="M11.1427966,3.71969989 L11.2007995,41.6858209" id="Path-14943"></path>
                            <path d="M4.5503914,1.54258365 L4.60839435,39.5087047" id="Path-14943"></path>
                            <path d="M26.5250753,8.07393237 L26.5830782,46.0400534" id="Path-14943"></path>
                            <path d="M35.3149488,12.4281648 L35.3729518,50.3942859" id="Path-14943"></path>
                            <path d="M52.3453287,16.8726506 L52.4033316,54.8387716" id="Path-14943"></path>
                            <path d="M44.1048224,14.6955343 L44.1628253,52.6616554" id="Path-14943"></path>
                            <path d="M60.585835,19.5940458 L60.643838,57.5601669" id="Path-14943"></path>
                            <path d="M68.8263414,22.8597201 L68.8843443,60.8258411" id="Path-14943"></path>
                            <path d="M87.0134583,29.9353479 L87.0714612,67.9014689" id="Path-14943"></path>
                            <path d="M78.772952,27.2139526 L78.8309549,65.1800736" id="Path-14943"></path>
                            <path d="M95.2539646,32.6567431 L95.3119676,70.6228641" id="Path-14943"></path>
                            <path d="M106.241306,35.3781384 L106.299309,73.3442594" id="Path-14943"></path>
                            <path d="M122.722319,40.8209289 L122.780322,78.7870499" id="Path-14943"></path>
                            <path d="M114.481813,38.0995336 L114.539816,76.0656546" id="Path-14943"></path>
                            <path d="M130.962825,43.5423241 L131.020828,81.5084452" id="Path-14943"></path>
                            <path d="M139.203332,46.2637194 L139.261335,84.2298404" id="Path-14943"></path>
                            <path d="M157.390449,51.7065099 L157.448452,89.6726309" id="Path-14943"></path>
                            <path d="M149.149942,48.9851147 L149.207945,86.9512357" id="Path-14943"></path>
                            <path d="M165.630955,54.4279052 L165.688958,92.3940262" id="Path-14943"></path>
                            <path d="M176.618297,57.1493004 L176.6763,95.1154215" id="Path-14943"></path>
                            <path d="M193.099309,62.592091 L193.157312,100.558212" id="Path-14943"></path>
                            <path d="M184.858803,59.8706957 L184.916806,97.8368167" id="Path-14943"></path>
                            <path d="M201.339816,65.3134862 L201.397819,103.279607" id="Path-14943"></path>
                            <path d="M209.580322,68.0348815 L209.638325,106.001002" id="Path-14943"></path>
                            <path d="M227.767439,76.7433463 L227.825442,114.709467" id="Path-14943"></path>
                            <path d="M219.526933,74.021951 L219.584936,111.988072" id="Path-14943"></path>
                            <path d="M236.007945,79.4647415 L236.065948,117.430863" id="Path-14943"></path>
                            <path d="M246.995287,82.1861368 L247.05329,120.152258" id="Path-14943"></path>
                            <path d="M263.4763,87.6289273 L263.534303,125.595048" id="Path-14943"></path>
                            <path d="M255.235793,84.9075321 L255.293796,122.873653" id="Path-14943"></path>
                            <path d="M271.716806,90.3503226 L271.774809,128.316444" id="Path-14943"></path>
                            <path d="M279.957312,93.0717178 L280.015315,131.037839" id="Path-14943"></path>
                            <path d="M289.022866,97.4259503 L289.080868,135.392071" id="Path-14943"></path>
                            <path d="M297.812739,100.147346 L297.870742,138.113467" id="Path-14943"></path>
                            <path d="M316.49122,105.590136 L316.549223,143.556257" id="Path-14943"></path>
                            <path d="M306.053245,102.868741 L306.111248,140.834862" id="Path-14943"></path>
                            <path d="M324.731726,108.311531 L324.789729,146.277652" id="Path-14943"></path>
                            <path d="M339.564638,111.032927 L339.622641,148.999048" id="Path-14943"></path>
                            <path d="M332.972233,111.032927 L333.030236,148.999048" id="Path-14943"></path>
                        </g>
                    </g>
                    <mask id="mask-4" fill="white">
                        <use xlink:href="#path-3"></use>
                    </mask>
                    <use id="Path-5567" fill="#D72224" xlink:href="#path-3"></use>
                    <polyline id="Path-15022" stroke="#1F2228" stroke-width="8.30344744" mask="url(#mask-4)" points="16.4810127 229.314571 360.628487 345.617198 716.924051 225.875807"></polyline>
                </g>
                <path d="M360.790957,681.604147 C382.571623,666.841949 425.50576,628.822951 425.50576,628.822951 C425.50576,628.822951 477.313838,677.43808 532.177189,705.649217 C570.798343,725.508497 613.74859,727.956255 628.966669,727.956255 C646.211509,727.956255 670.262297,724.017614 684.972733,714.941333 C701.684786,704.630062 707.979659,689.023171 707.979659,689.023171 C707.979659,689.023171 715.09832,669.502877 710.663787,649.630944 C706.975229,633.101859 694.62448,616.31602 669.707467,610.442228 C646.977248,605.083938 632.9563,612.514249 625.903521,622.756956 C615.930114,637.241273 618.547884,657.606193 618.547884,657.606193 C618.547884,657.606193 628.218774,639.895605 641.839193,632.918036 C649.279891,629.10626 658.615135,628.069068 666.331614,632.918036 C673.172912,635.678394 684.972733,647.390713 680.737304,662.277282 C678.692981,669.462612 676.110735,672.415811 662.581223,679.165183 C649.051712,685.914555 629.957519,675.147706 629.957519,675.147706 C629.957519,675.147706 609.034761,658.334219 600.86019,649.630945 C592.598592,640.835015 583.37037,626.255006 573.195728,614.466489 C568.384234,608.891808 562.634898,601.480259 558.20925,596.747058 C546.95536,584.711095 539.124686,578.440118 539.124686,578.440118 C539.124686,578.440118 520.52132,557.362104 480.460309,555.109777 C440.399299,552.85745 423.718278,570.915875 423.718278,570.915875 C423.718278,570.915875 409.354301,553.802052 370.654038,555.109777 C331.953776,556.417502 311.516994,576.119027 311.516994,576.119027 C311.516994,576.119027 296.234879,589.765697 290.214062,596.747059 C276.307313,612.872454 251.734297,645.439297 251.734297,645.439297 C251.734297,645.439297 224.761251,673.107832 211.975405,679.165181 C207.8813,681.104781 201.230656,682.250385 196.152537,681.604147 C189.15599,680.713773 181.135768,676.788245 181.135768,676.788245 C181.135768,676.788245 165.687084,669.491894 165.687084,657.606193 C165.687084,645.720491 172.198688,640.092744 177.155623,635.848025 C182.112558,631.603305 190.071948,628.822952 197.644246,628.822952 C200.81213,628.822952 207.295107,632.62855 213.549623,638.035147 C222.245488,645.552119 230.672466,655.378208 230.672466,655.378208 C230.672466,655.378208 231.758165,639.154853 224.782213,626.140371 C217.806261,613.125888 201.765172,608.601014 196.699328,608.601017 C191.633485,608.60102 179.640117,606.188046 157.74425,619.758015 C135.848384,633.327983 135.601739,652.467808 135.601739,652.467808 C135.601739,652.467808 131.942011,674.602757 144.081227,694.772046 C156.220443,714.941334 189.489117,723.385312 189.489117,723.385312 C189.489117,723.385312 223.829122,728.801356 240.768617,726.732191 C263.065906,724.008569 307.199467,709.006951 307.199467,709.006951 C307.199467,709.006951 343.136192,693.569949 360.790957,681.604147 Z" id="Path-14923" fill="#000000"></path>
                <g id="Group-7" transform="translate(0.000000, 0.544280)">
                    <g id="Group-2" transform="translate(19.227848, 0.590136)">
                        <path d="M626.750886,363.571377 C548.872468,375.023237 482.336629,382.618403 392.275311,382.618403 C302.213993,382.618403 241.383257,382.618403 169.280369,377.211575 C141.466437,375.125872 120.341902,365.743716 103.529869,360.142392 C76.7595641,351.223237 60.7696518,344.581616 44.95318,336.986371 C-16.3304532,307.557291 2.9498973,238.336804 2.9498973,238.336804 C2.9498973,238.336804 12.0560014,214.05069 54.1307498,202.830675 C96.2054983,191.61066 244.650144,226.48628 244.650144,226.48628 C244.650144,226.48628 265.135797,2.7508366 392.275329,1.14708204 C519.414861,-0.456672523 567.55296,217.13656 567.55296,217.13656 C567.55296,217.13656 739.793218,172.482188 778.274386,178.459241 C816.755554,184.436294 828.964416,224.216717 828.964416,224.216717 C828.964416,224.216717 828.504594,240.965079 822.804923,272.136196 C817.105252,303.307314 765.181861,322.455848 765.181861,322.455848 C765.181861,322.455848 704.629304,352.119517 626.750886,363.571377 Z" id="Path-14938" fill="#CA8240"></path>
                        <path d="M568.046711,221.418896 C561.442737,185.662879 549.142921,148.220306 537.023876,125.123602 C525.366566,102.906882 506.155831,63.486829 480.919667,40.6995917 C467.690797,28.7544563 453.236575,18.6907288 441.244422,12.8064868 C425.086465,4.87819169 413.225893,3.30630849 413.225893,3.30630849 C413.225893,3.30630849 438.905148,38.3431106 458.95063,83.7994577 C473.162209,116.026493 481.3955,155.645199 489.653865,182.132519 C503.699175,227.180496 515.082275,316.930881 515.082275,316.930881 L577.624032,311.477455 C577.624032,311.477455 577.262653,271.316936 568.046711,221.418896 Z" id="Path-14940" fill="#AD6D33"></path>
                        <path d="M570.350729,246.022601 C570.350729,246.022601 746.955678,206.811461 770.811908,215.443586 C794.668138,224.075711 798.044611,232.069944 798.044611,232.069944 L823.389247,210.131135 C823.389247,210.131135 814.20286,194.057827 798.044606,184.593726 C788.3127,178.893622 775.769309,176.893739 762.703413,176.893739 C727.943711,176.893739 566.26065,217.435649 566.26065,217.435649 L570.350729,246.022601 Z" id="Path-14941" fill="#AD6D33"></path>
                        <path d="M56.1623099,246.994562 C80.4877833,233.899521 241.702081,251.946977 241.702081,251.946977 L244.717171,226.509721 C244.717171,226.509721 109.42031,191.920483 57.9214929,201.955287 C6.42267539,211.99009 2.54342763,240.476657 2.54342763,240.476657 L37.2680881,271.284019 C37.2680881,271.284019 31.8368365,260.089602 56.1623099,246.994562 Z" id="Path-14942" fill="#AD6D33"></path>
                    </g>
                    <g id="Group-9" transform="translate(0.000000, 222.111710)">
                        <polygon id="Path-15023" fill="#C41719" transform="translate(649.349545, 114.569804) scale(1, -1) rotate(10.000000) translate(-649.349545, -114.569804) " points="621.881642 137.703272 648.247708 91.4363372 676.817448 137.698154"></polygon>
                        <polygon id="Path-15023" fill="#19974E" points="379.063291 157.840925 405.42548 111.577206 434 157.840924"></polygon>
                        <polygon id="Path-15023" fill="#19974E" transform="translate(477.950277, 131.988106) rotate(-4.000000) translate(-477.950277, -131.988106) " points="450.481995 155.118488 476.84236 108.855645 505.418558 155.120568"></polygon>
                        <polygon id="Path-15023" fill="#C41719" transform="translate(442.240506, 134.709065) scale(1, -1) translate(-442.240506, -134.709065) " points="414.772152 157.840925 441.134341 111.577206 469.708861 157.840924"></polygon>
                        <polygon id="Path-15023" fill="#19974E" transform="translate(546.621398, 127.633962) rotate(-5.000000) translate(-546.621398, -127.633962) " points="519.153157 150.763997 545.513048 104.501332 574.089638 150.766593"></polygon>
                        <polygon id="Path-15023" fill="#19974E" transform="translate(613.645135, 118.381484) rotate(-9.000000) translate(-613.645135, -118.381484) " points="586.177146 141.510232 612.535089 95.2481143 641.113123 141.514853"></polygon>
                        <polygon id="Path-15023" fill="#C41719" transform="translate(580.129534, 123.278322) scale(1, -1) rotate(9.000000) translate(-580.129534, -123.278322) " points="552.661546 146.4116 579.027278 100.145045 607.597522 146.406976"></polygon>
                        <polygon id="Path-15023" fill="#C41719" transform="translate(513.107233, 129.809806) scale(1, -1) rotate(7.000000) translate(-513.107233, -129.809806) " points="485.639101 152.942721 512.004125 106.67689 540.575365 152.9391"></polygon>
                        <polygon id="Path-15023" fill="#19974E" transform="translate(684.513966, 106.407423) rotate(-11.000000) translate(-684.513966, -106.407423) " points="657.046156 129.535596 683.403101 83.273648 711.981776 129.541198"></polygon>
                        <polygon id="Path-15023" fill="#19974E" transform="translate(754.835743, 83.003086) rotate(-24.000000) translate(-754.835743, -83.003086) " points="727.369863 106.128807 753.72031 59.8662514 782.301622 106.139922"></polygon>
                        <polygon id="Path-15023" fill="#C41719" transform="translate(717.665629, 96.601849) scale(1, -1) rotate(13.000000) translate(-717.665629, -96.601849) " points="691.818072 115.448175 722.762741 71.8221023 743.513187 121.381595"></polygon>
                        <path d="M833.106653,69.1166134 C830.236014,71.3655531 823.076658,74.4614042 823.076658,74.4614042 L793.701221,74.454621 L820.049347,28.1910641 L840.295572,60.9716208 C840.295572,60.9716208 835.975652,66.8689586 833.106653,69.1166134 Z" id="Path-15023" fill="#19974E" transform="translate(816.998397, 51.326234) rotate(-29.000000) translate(-816.998397, -51.326234) "></path>
                        <polygon id="Path-15023" fill="#C41719" transform="translate(838.971276, 27.027470) scale(1, -1) rotate(35.000000) translate(-838.971276, -27.027470) " points="860.837144 41.8953933 817.105408 41.9065859 834.061438 12.1483545"></polygon>
                        <polygon id="Path-15023" fill="#C41719" transform="translate(788.885012, 69.395184) scale(1, -1) rotate(28.000000) translate(-788.885012, -69.395184) " points="761.419954 92.5327974 787.789428 46.2575711 816.350069 92.5203947"></polygon>
                        <polygon id="Path-15023" fill="#19974E" transform="translate(124.103305, 109.129000) rotate(17.000000) translate(-124.103305, -109.129000) " points="96.6362292 132.263944 123.004239 85.9940559 151.570381 132.255578"></polygon>
                        <polygon id="Path-15023" fill="#19974E" transform="translate(195.703542, 128.130313) rotate(8.000000) translate(-195.703542, -128.130313) " points="168.235477 151.263406 194.600862 104.99722 223.171607 151.259282"></polygon>
                        <polygon id="Path-15023" fill="#C41719" transform="translate(162.232238, 121.013028) scale(1, -1) rotate(-12.000000) translate(-162.232238, -121.013028) " points="134.764531 144.140931 161.120972 97.8790414 189.699946 144.147014"></polygon>
                        <polygon id="Path-15023" fill="#19974E" points="238.974684 155.11953 265.336872 108.85581 293.911392 155.119528"></polygon>
                        <polygon id="Path-15023" fill="#19974E" points="310.392405 155.11953 336.754594 108.85581 365.329114 155.119528"></polygon>
                        <polygon id="Path-15023" fill="#C41719" transform="translate(302.151899, 131.987670) scale(1, -1) translate(-302.151899, -131.987670) " points="274.683544 155.11953 301.045733 108.85581 329.620253 155.119528"></polygon>
                        <polygon id="Path-15023" fill="#C41719" transform="translate(373.569620, 131.987670) scale(1, -1) translate(-373.569620, -131.987670) " points="346.101266 155.11953 372.463455 108.85581 401.037975 155.119528"></polygon>
                        <polygon id="Path-15023" fill="#C41719" transform="translate(230.734855, 131.987331) scale(1, -1) rotate(-3.000000) translate(-230.734855, -131.987331) " points="203.266541 155.118069 229.627373 108.85503 258.203168 155.119631"></polygon>
                        <path d="M46.8875507,103.271082 C46.8875507,103.271082 41.3575804,101.006167 38.9195386,99.6347204 C36.8530951,98.472305 33.1691516,96.324478 33.1691516,96.324478 L55.4096042,56.999473 L83.969778,103.262518 L46.8875507,103.271082 Z" id="Path-15023" fill="#19974E" transform="translate(58.569465, 80.135278) rotate(29.000000) translate(-58.569465, -80.135278) "></path>
                        <path d="M5.9732984,72.7090814 C5.9732984,72.7090814 13.7602411,61.2761602 18.6258468,56.2849752 C23.3137917,51.4760365 34.6339504,43.3087103 34.6339504,43.3087103 L52.7980901,72.7213385 L5.9732984,72.7090814 Z" id="Path-15023" fill="#C41719" transform="translate(29.385694, 58.015024) scale(1, -1) rotate(-37.000000) translate(-29.385694, -58.015024) "></path>
                        <polygon id="Path-15023" fill="#C41719" transform="translate(89.349474, 97.239209) scale(1, -1) rotate(-23.000000) translate(-89.349474, -97.239209) " points="61.8834031 120.365032 88.2343337 74.1026276 116.815544 120.375791"></polygon>
                    </g>
                    <path d="M22.68298,243.543691 C22.68298,243.543691 35.0296815,262.815148 69.3882767,281.622068 C99.1131921,297.892643 139.558483,314.40829 195.767343,321.901756 C250.993862,329.264261 321.441906,327.738842 411.430484,328.594309 C564.087293,330.045525 675.009224,310.527124 746.84346,281.622066 C814.480404,254.405938 842.158058,212.398391 842.158058,212.398391" id="Path-14939" stroke="#FFFFFF" stroke-width="3.933212"></path>
                </g>
            </g>
        </g>
    </g>
</svg>